<svg width="102" height="36" viewBox="0 0 102 36" fill="none" xmlns="http://www.w3.org/2000/svg">
    <path
        d="M2.29891 11.2783C1.88206 11.2783 1.52411 11.1333 1.22507 10.8433C0.935091 10.5443 0.7901 10.1863 0.7901 9.76947C0.7901 9.35262 0.935091 8.99468 1.22507 8.69563C1.52411 8.39659 1.88206 8.24707 2.29891 8.24707H12.412C12.8288 8.24707 13.1823 8.39659 13.4722 8.69563C13.7713 8.99468 13.9208 9.35262 13.9208 9.76947C13.9208 10.1863 13.7713 10.5443 13.4722 10.8433C13.1823 11.1333 12.8288 11.2783 12.412 11.2783H2.29891ZM12.412 24.6401C12.8288 24.6401 13.1823 24.7896 13.4722 25.0886C13.7713 25.3786 13.9208 25.7365 13.9208 26.1625C13.9208 26.5793 13.7713 26.9372 13.4722 27.2363C13.1823 27.5263 12.8288 27.6713 12.412 27.6713H2.29891C1.88206 27.6713 1.52411 27.5263 1.22507 27.2363C0.935091 26.9372 0.7901 26.5793 0.7901 26.1625C0.7901 26.1534 0.7901 26.1489 0.7901 26.1489C0.7901 26.1398 0.7901 26.1353 0.7901 26.1353C0.7901 26.1353 0.7901 26.1307 0.7901 26.1217C0.7901 26.1217 0.7901 26.1171 0.7901 26.1081V17.9388C0.7901 17.9388 0.7901 17.9342 0.7901 17.9252C0.7901 17.9252 0.7901 17.9207 0.7901 17.9116C0.7901 17.9025 0.7901 17.898 0.7901 17.898C0.7901 17.4721 0.939622 17.1096 1.23866 16.8106C1.53771 16.5025 1.90018 16.3484 2.32609 16.3484H5.94179C6.3677 16.3484 6.73018 16.5025 7.02922 16.8106C7.32827 17.1096 7.47779 17.4721 7.47779 17.898C7.47779 18.3148 7.32827 18.6773 7.02922 18.9854C6.73018 19.2845 6.3677 19.434 5.94179 19.434H3.87568V24.6401H12.412Z"
        fill="#4B3DF1" />
    <path
        d="M35.7056 17.9388C35.7056 17.9569 35.7056 17.9705 35.7056 17.9796C35.7056 17.9886 35.7056 17.9931 35.7056 17.9931C35.7056 17.9931 35.7056 17.9977 35.7056 18.0067C35.7056 18.0158 35.7056 18.0294 35.7056 18.0475V26.2168C35.7056 26.6427 35.5561 27.0052 35.2571 27.3043C34.958 27.6033 34.6001 27.7528 34.1832 27.7528C33.7573 27.7528 33.3948 27.6033 33.0958 27.3043C32.7967 27.0052 32.6472 26.6427 32.6472 26.2168V19.4748H30.5403C30.1144 19.4748 29.7519 19.3252 29.4529 19.0262C29.1539 18.7272 29.0043 18.3647 29.0043 17.9388C29.0043 17.5129 29.1539 17.1504 29.4529 16.8513C29.7519 16.5523 30.1144 16.4028 30.5403 16.4028H34.1696C34.5955 16.4028 34.958 16.5523 35.2571 16.8513C35.5561 17.1504 35.7056 17.5129 35.7056 17.9388ZM25.9867 24.6944C26.4126 24.7126 26.766 24.8666 27.047 25.1566C27.3369 25.4375 27.4819 25.7864 27.4819 26.2032C27.4819 26.6201 27.3369 26.9735 27.047 27.2635C26.766 27.5535 26.4126 27.7075 25.9867 27.7256C24.1925 27.7256 22.5568 27.2907 21.0797 26.4207C19.6026 25.5417 18.4246 24.3682 17.5456 22.9002C16.6756 21.4231 16.2406 19.7874 16.2406 17.9931C16.2406 16.1989 16.6756 14.5677 17.5456 13.0997C18.4246 11.6226 19.6026 10.4446 21.0797 9.56558C22.5568 8.68657 24.1925 8.24707 25.9867 8.24707C27.0651 8.24707 28.0936 8.41472 29.0723 8.75001C30.0601 9.0853 30.9617 9.55652 31.7773 10.1637C32.2394 10.4808 32.4705 10.9067 32.4705 11.4414C32.4705 11.8673 32.3165 12.2298 32.0084 12.5288C31.7093 12.8279 31.3514 12.9774 30.9345 12.9774C30.5539 12.9774 30.2232 12.8596 29.9422 12.624C28.7823 11.754 27.4638 11.3191 25.9867 11.3191C24.7543 11.3191 23.6306 11.6181 22.6157 12.2162C21.6098 12.8143 20.8078 13.6208 20.2098 14.6357C19.6117 15.6416 19.3126 16.7607 19.3126 17.9931C19.3126 19.2165 19.6117 20.3357 20.2098 21.3506C20.8078 22.3565 21.6098 23.163 22.6157 23.7701C23.6306 24.3682 24.7543 24.6672 25.9867 24.6672V24.6944Z"
        fill="#4B3DF1" />
    <path
        d="M50.327 10.9385C50.8435 11.9171 51.0837 12.8913 51.0474 13.8609C51.0655 14.4771 50.9749 15.1115 50.7756 15.7639C50.5762 16.4073 50.2454 17.0099 49.7833 17.5718C49.3302 18.1336 48.7276 18.5912 47.9754 18.9446C47.2233 19.2981 46.308 19.4748 45.2297 19.4748L41.0975 19.502V26.1761C41.0975 26.602 40.9479 26.9644 40.6489 27.2635C40.3498 27.5535 39.9874 27.6985 39.5615 27.6985C39.1446 27.6985 38.7867 27.5535 38.4876 27.2635C38.1886 26.9644 38.0391 26.602 38.0391 26.1761V17.966C38.0391 17.5582 38.175 17.2093 38.4468 16.9193C38.764 16.584 39.1446 16.4164 39.5886 16.4164L41.3013 16.43C41.4554 16.43 41.6593 16.43 41.913 16.43C42.4749 16.43 43.1001 16.43 43.7888 16.43C44.4866 16.43 44.9714 16.43 45.2433 16.43C45.9864 16.43 46.589 16.1808 47.0511 15.6824C47.5223 15.184 47.767 14.5904 47.7851 13.9017H47.7715C47.7715 13.213 47.5314 12.6149 47.0511 12.1074C46.5799 11.5909 45.9728 11.3326 45.2297 11.3326C45.0213 11.3326 44.6769 11.3326 44.1966 11.3326C43.7254 11.3326 43.2361 11.3326 42.7286 11.3326C42.2302 11.3326 41.8179 11.3326 41.4916 11.3326C41.4192 11.3326 41.3512 11.3326 41.2878 11.3326L39.5751 11.3462C39.1491 11.3462 38.7821 11.1922 38.474 10.8841C38.175 10.5669 38.0255 10.1999 38.0255 9.78306C38.0255 9.35715 38.175 8.99468 38.474 8.69563C38.7731 8.39659 39.131 8.24707 39.5479 8.24707H41.0567L43.6801 8.27426C43.7435 8.26519 43.8024 8.26066 43.8568 8.26066C43.8568 8.26066 43.9882 8.26066 44.251 8.26066C44.5138 8.26066 44.84 8.26066 45.2297 8.26066V8.24707C45.3747 8.24707 45.5197 8.2516 45.6647 8.26066C46.5165 8.26973 47.2097 8.38753 47.7444 8.61408C48.279 8.83156 48.7412 9.1442 49.1308 9.55198C49.5749 9.92352 49.9373 10.3404 50.2183 10.8025C50.2545 10.8478 50.2908 10.8931 50.327 10.9385ZM48.0162 22.4516L50.5853 25.0207C50.8843 25.3469 51.0338 25.7094 51.0338 26.1081C51.0338 26.4977 50.8843 26.8602 50.5853 27.1955C50.25 27.4946 49.883 27.6441 49.4842 27.6441C49.0946 27.6441 48.7366 27.4946 48.4104 27.1955L45.8414 24.6265C45.5423 24.3002 45.3928 23.9423 45.3928 23.5526C45.3928 23.1539 45.5423 22.7869 45.8414 22.4516C46.1767 22.1526 46.5391 22.003 46.9288 22.003C47.3275 22.003 47.69 22.1526 48.0162 22.4516Z"
        fill="#4B3DF1" />
    <path
        d="M71.2566 25.6323C71.4197 26.022 71.4287 26.4026 71.2838 26.7741C71.1478 27.1366 70.8896 27.4085 70.509 27.5897C70.1193 27.7528 69.7387 27.7664 69.3672 27.6305C69.0047 27.4855 68.7328 27.2227 68.5516 26.8421L62.3804 13.2628L56.2093 26.8421C56.028 27.2227 55.7517 27.4855 55.3801 27.6305C55.0086 27.7664 54.6325 27.7528 54.2519 27.5897C53.8713 27.4085 53.6085 27.1366 53.4635 26.7741C53.3276 26.4026 53.3412 26.022 53.5043 25.6323L60.9668 9.19857C61.0755 8.9539 61.2341 8.75454 61.4425 8.60048C61.4697 8.5733 61.4969 8.54611 61.5241 8.51893C61.5331 8.51893 61.5377 8.51893 61.5377 8.51893C61.5649 8.5008 61.592 8.48268 61.6192 8.46456C61.6464 8.44643 61.6691 8.43284 61.6872 8.42378C61.6963 8.41472 61.7053 8.41018 61.7144 8.41018C61.7234 8.40112 61.728 8.39659 61.728 8.39659C61.737 8.39659 61.7461 8.39206 61.7552 8.383C61.7642 8.37394 61.7778 8.36941 61.7959 8.36941C61.7959 8.36941 61.8005 8.36488 61.8095 8.35581C61.8095 8.35581 61.8141 8.35581 61.8231 8.35581C61.8322 8.35581 61.8413 8.35128 61.8503 8.34222C61.8503 8.34222 61.8548 8.34222 61.8639 8.34222C61.873 8.34222 61.8775 8.33769 61.8775 8.32863C61.9047 8.31957 61.9273 8.31503 61.9455 8.31503C62.0814 8.26973 62.2264 8.24707 62.3804 8.24707C62.5345 8.24707 62.6795 8.26973 62.8154 8.31503C62.8245 8.31503 62.829 8.31503 62.829 8.31503C62.8743 8.33316 62.9151 8.34675 62.9513 8.35581C62.9513 8.36488 62.9559 8.36941 62.9649 8.36941C62.974 8.36941 62.9785 8.36941 62.9785 8.36941C62.9876 8.37847 62.9921 8.383 62.9921 8.383C63.0284 8.40112 63.0601 8.41925 63.0873 8.43737C63.0963 8.43737 63.1009 8.43737 63.1009 8.43737C63.1009 8.43737 63.1054 8.43737 63.1145 8.43737C63.196 8.49174 63.273 8.55064 63.3455 8.61408C63.5358 8.77719 63.6854 8.97202 63.7941 9.19857L71.2566 25.6323ZM64.1883 24.6401C64.6142 24.6401 64.9767 24.7941 65.2757 25.1022C65.5748 25.4013 65.7243 25.7637 65.7243 26.1896C65.7243 26.6065 65.5748 26.969 65.2757 27.2771C64.9767 27.5761 64.6142 27.7256 64.1883 27.7256H60.5726C60.1467 27.7256 59.7797 27.5761 59.4716 27.2771C59.1725 26.969 59.023 26.6065 59.023 26.1896C59.023 25.7637 59.1725 25.4013 59.4716 25.1022C59.7797 24.7941 60.1467 24.6401 60.5726 24.6401H64.1883Z"
        fill="#4B3DF1" />
    <path
        d="M101.433 25.6459C101.596 26.0265 101.605 26.4026 101.46 26.7741C101.324 27.1457 101.066 27.4221 100.685 27.6033C100.296 27.7664 99.915 27.78 99.5435 27.6441C99.181 27.4991 98.9092 27.2363 98.7279 26.8557L92.5432 13.2628L89.2673 20.5078L91.5917 25.6459C91.7548 26.0265 91.7684 26.4026 91.6325 26.7741C91.4965 27.1457 91.2383 27.4221 90.8577 27.6033C90.468 27.7664 90.0874 27.78 89.7159 27.6441C89.3534 27.4991 89.077 27.2363 88.8867 26.8557L82.7155 13.2628L76.5444 26.8557C76.3631 27.2363 76.0868 27.4991 75.7152 27.6441C75.3527 27.78 74.9767 27.7664 74.587 27.6033C74.2064 27.4221 73.9436 27.1457 73.7986 26.7741C73.6627 26.4026 73.6763 26.0265 73.8394 25.6459L81.3019 9.21216C81.4197 8.96749 81.5783 8.76813 81.7776 8.61408C81.8048 8.58689 81.8365 8.55971 81.8728 8.53252C81.8818 8.53252 81.8864 8.53252 81.8864 8.53252C81.9136 8.50533 81.9407 8.48268 81.9679 8.46456C81.9861 8.45549 82.0042 8.44643 82.0223 8.43737C82.0314 8.42831 82.045 8.41925 82.0631 8.41018C82.0631 8.41018 82.0676 8.41018 82.0767 8.41018C82.0857 8.40112 82.0903 8.39659 82.0903 8.39659C82.1084 8.38753 82.122 8.383 82.131 8.383C82.1401 8.37394 82.1446 8.36941 82.1446 8.36941C82.1537 8.36941 82.1582 8.36941 82.1582 8.36941C82.1673 8.36034 82.1764 8.35581 82.1854 8.35581C82.1945 8.35581 82.199 8.35581 82.199 8.35581C82.2081 8.34675 82.2171 8.34222 82.2262 8.34222C82.2443 8.33316 82.2624 8.3241 82.2806 8.31503C82.4256 8.26973 82.5706 8.24707 82.7155 8.24707C82.8696 8.24707 83.0191 8.27426 83.1641 8.32863C83.1732 8.32863 83.1777 8.32863 83.1777 8.32863C83.2139 8.33769 83.2547 8.35128 83.3 8.36941C83.3 8.36941 83.3046 8.37394 83.3136 8.383C83.3136 8.383 83.3182 8.383 83.3272 8.383C83.3272 8.383 83.3318 8.38753 83.3408 8.39659C83.368 8.40565 83.3997 8.41925 83.436 8.43737C83.436 8.44643 83.4405 8.45096 83.4496 8.45096C83.5311 8.50533 83.6081 8.56424 83.6806 8.62767C83.88 8.78172 84.0295 8.97655 84.1292 9.21216L87.6362 16.9193L91.1431 9.21216C91.2519 8.96749 91.4059 8.76813 91.6053 8.61408C91.6415 8.58689 91.6732 8.55971 91.7004 8.53252C91.7004 8.53252 91.705 8.53252 91.714 8.53252C91.7412 8.50533 91.7684 8.48268 91.7956 8.46456C91.8137 8.45549 91.8318 8.44643 91.8499 8.43737C91.8681 8.42831 91.8817 8.41925 91.8907 8.41018C91.8907 8.41018 91.8953 8.41018 91.9043 8.41018C91.9134 8.40112 91.9224 8.39659 91.9315 8.39659C91.9406 8.38753 91.9496 8.383 91.9587 8.383C91.9677 8.37394 91.9723 8.36941 91.9723 8.36941C91.9813 8.36941 91.9859 8.36941 91.9859 8.36941C91.9949 8.36034 92.004 8.35581 92.0131 8.35581C92.0221 8.35581 92.0312 8.35581 92.0402 8.35581C92.0402 8.34675 92.0448 8.34222 92.0538 8.34222C92.072 8.33316 92.0946 8.3241 92.1218 8.31503C92.2577 8.26973 92.4027 8.24707 92.5568 8.24707C92.7108 8.24707 92.8558 8.27426 92.9917 8.32863C92.9917 8.32863 92.9963 8.32863 93.0053 8.32863C93.0506 8.33769 93.0914 8.35128 93.1277 8.36941C93.1277 8.36941 93.1322 8.37394 93.1413 8.383C93.1413 8.383 93.1458 8.383 93.1549 8.383C93.1549 8.383 93.1594 8.38753 93.1684 8.39659C93.1956 8.40565 93.2274 8.41925 93.2636 8.43737C93.2636 8.44643 93.2681 8.45096 93.2772 8.45096C93.3678 8.50533 93.4448 8.56424 93.5083 8.62767C93.7076 8.78172 93.8572 8.97655 93.9568 9.21216L101.433 25.6459Z"
        fill="#4B3DF1" />
</svg>