<svg width="50" height="48" viewBox="0 0 50 48" fill="none" xmlns="http://www.w3.org/2000/svg">
    <path
        d="M40.8298 12.759L40.83 12.7591C41.3045 13.0201 41.7021 13.4028 41.9819 13.8648C42.2616 14.3268 42.4165 14.8564 42.4279 15.3979L42.4279 15.3981L42.7708 31.8757L40.8298 12.759ZM40.8298 12.759L26.3868 4.82001L26.0416 5.44626L26.3861 4.81963L26.3863 4.81974C25.4242 4.28971 24.2439 4.3136 23.3027 4.88357L9.20488 13.4207C8.26354 13.9908 7.69544 15.0258 7.71947 16.1242C7.71948 16.1242 7.71948 16.1243 7.71948 16.1243L8.06234 32.6019L8.06235 32.6021C8.07376 33.1436 8.22864 33.6732 8.5084 34.1352C8.78816 34.5972 9.18576 34.9799 9.66028 35.2409L9.66046 35.241M40.8298 12.759L9.66046 35.241M9.66046 35.241L24.1035 43.18C24.1036 43.1801 24.1038 43.1801 24.1039 43.1802C25.066 43.7103 26.2464 43.6864 27.1876 43.1164L41.2854 34.5793C42.2266 34.0093 42.7946 32.9746 42.7708 31.8765L9.66046 35.241Z"
        fill="url(#paint0_linear_1_677)" stroke="url(#paint1_linear_1_677)" stroke-width="1.4316" />
    <g filter="url(#filter0_dd_1_677)">
        <mask id="mask0_1_677" style="mask-type:luminance" maskUnits="userSpaceOnUse" x="9" y="20" width="32"
            height="19">
            <path d="M40.7065 29.587L25.5151 38.8462L9.84928 30.2336L25.0407 20.9744L40.7065 29.587Z" fill="white" />
        </mask>
        <g mask="url(#mask0_1_677)">
            <path
                d="M11.1102 30.9271L24.2541 38.153C24.9502 38.5355 26.0627 38.5129 26.7371 38.101L39.4831 30.3331C40.1583 29.9225 40.1404 29.277 39.4442 28.8945L26.3003 21.6686C25.6041 21.286 24.4917 21.3086 23.816 21.7213L11.07 29.4892C10.3948 29.8998 10.4127 30.5453 11.1089 30.9278"
                fill="url(#paint2_linear_1_677)" />
        </g>
    </g>
    <g filter="url(#filter1_dd_1_677)">
        <mask id="mask1_1_677" style="mask-type:luminance" maskUnits="userSpaceOnUse" x="9" y="15" width="32"
            height="19">
            <path d="M40.5489 23.857L25.3574 33.1162L9.69163 24.5036L24.8831 15.2444L40.5489 23.857Z" fill="white" />
        </mask>
        <g mask="url(#mask1_1_677)">
            <path
                d="M10.9525 25.1973L24.0964 32.4232C24.7926 32.8058 25.905 32.7832 26.5794 32.3713L39.3255 24.6034C40.0006 24.1928 39.9827 23.5473 39.2865 23.1647L26.1427 15.9388C25.4465 15.5563 24.334 15.5789 23.6584 15.9916L10.9123 23.7594C10.2372 24.17 10.255 24.8156 10.9512 25.1981"
                fill="url(#paint3_linear_1_677)" />
        </g>
    </g>
    <g filter="url(#filter2_d_1_677)">
        <mask id="mask2_1_677" style="mask-type:luminance" maskUnits="userSpaceOnUse" x="9" y="9" width="32"
            height="19">
            <path d="M40.6411 17.7671L25.4497 27.0264L9.78391 18.4138L24.9753 9.15453L40.6411 17.7671Z" fill="white" />
        </mask>
        <g mask="url(#mask2_1_677)">
            <path
                d="M11.046 19.1062L17.618 22.7192L19.8155 23.8536L25.1936 23.8374C25.8898 24.2199 26.0167 24.577 26.6911 24.1651L33.0459 22.3962L39.419 18.5123C40.0941 18.1017 40.0762 17.4562 39.38 17.0736L26.2362 9.84775C25.54 9.4652 24.4275 9.48781 23.7519 9.90049L11.0058 17.6683C10.3307 18.0789 10.3485 18.7245 11.0447 19.107"
                fill="url(#paint4_linear_1_677)" />
        </g>
    </g>
    <g filter="url(#filter3_d_1_677)">
        <path
            d="M33.4152 22.1328C27.9185 26.1789 22.0082 24.7515 19.4941 23.6756C19.4941 23.6756 22.1248 24.0791 23.2843 23.2425C24.4438 22.406 26.1629 19.4759 28.1866 20.8651C30.5141 22.4629 32.484 22.6035 33.4152 22.1328Z"
            fill="#4B3DF1" />
    </g>
    <defs>
        <filter id="filter0_dd_1_677" x="6.99598" y="17.817" width="36.5611" height="24.5454"
            filterUnits="userSpaceOnUse" color-interpolation-filters="sRGB">
            <feFlood flood-opacity="0" result="BackgroundImageFix" />
            <feColorMatrix in="SourceAlpha" type="matrix" values="0 0 0 0 0 0 0 0 0 0 0 0 0 0 0 0 0 0 127 0"
                result="hardAlpha" />
            <feOffset />
            <feGaussianBlur stdDeviation="1.78949" />
            <feComposite in2="hardAlpha" operator="out" />
            <feColorMatrix type="matrix" values="0 0 0 0 1 0 0 0 0 1 0 0 0 0 1 0 0 0 1 0" />
            <feBlend mode="normal" in2="BackgroundImageFix" result="effect1_dropShadow_1_677" />
            <feColorMatrix in="SourceAlpha" type="matrix" values="0 0 0 0 0 0 0 0 0 0 0 0 0 0 0 0 0 0 127 0"
                result="hardAlpha" />
            <feOffset dy="0.357899" />
            <feGaussianBlur stdDeviation="1.78949" />
            <feComposite in2="hardAlpha" operator="out" />
            <feColorMatrix type="matrix" values="0 0 0 0 0.0235294 0 0 0 0 0 0 0 0 0 0.254902 0 0 0 1 0" />
            <feBlend mode="multiply" in2="effect1_dropShadow_1_677" result="effect2_dropShadow_1_677" />
            <feBlend mode="normal" in="SourceGraphic" in2="effect2_dropShadow_1_677" result="shape" />
        </filter>
        <filter id="filter1_dd_1_677" x="6.83833" y="12.0873" width="36.5611" height="24.5454"
            filterUnits="userSpaceOnUse" color-interpolation-filters="sRGB">
            <feFlood flood-opacity="0" result="BackgroundImageFix" />
            <feColorMatrix in="SourceAlpha" type="matrix" values="0 0 0 0 0 0 0 0 0 0 0 0 0 0 0 0 0 0 127 0"
                result="hardAlpha" />
            <feOffset />
            <feGaussianBlur stdDeviation="1.78949" />
            <feComposite in2="hardAlpha" operator="out" />
            <feColorMatrix type="matrix" values="0 0 0 0 1 0 0 0 0 1 0 0 0 0 1 0 0 0 1 0" />
            <feBlend mode="normal" in2="BackgroundImageFix" result="effect1_dropShadow_1_677" />
            <feColorMatrix in="SourceAlpha" type="matrix" values="0 0 0 0 0 0 0 0 0 0 0 0 0 0 0 0 0 0 127 0"
                result="hardAlpha" />
            <feOffset dy="0.357899" />
            <feGaussianBlur stdDeviation="1.78949" />
            <feComposite in2="hardAlpha" operator="out" />
            <feColorMatrix type="matrix" values="0 0 0 0 0.0235294 0 0 0 0 0 0 0 0 0 0.254902 0 0 0 1 0" />
            <feBlend mode="multiply" in2="effect1_dropShadow_1_677" result="effect2_dropShadow_1_677" />
            <feBlend mode="normal" in="SourceGraphic" in2="effect2_dropShadow_1_677" result="shape" />
        </filter>
        <filter id="filter2_d_1_677" x="6.93182" y="5.99621" width="36.5611" height="21.9314"
            filterUnits="userSpaceOnUse" color-interpolation-filters="sRGB">
            <feFlood flood-opacity="0" result="BackgroundImageFix" />
            <feColorMatrix in="SourceAlpha" type="matrix" values="0 0 0 0 0 0 0 0 0 0 0 0 0 0 0 0 0 0 127 0"
                result="hardAlpha" />
            <feOffset />
            <feGaussianBlur stdDeviation="1.78949" />
            <feComposite in2="hardAlpha" operator="out" />
            <feColorMatrix type="matrix" values="0 0 0 0 1 0 0 0 0 1 0 0 0 0 1 0 0 0 1 0" />
            <feBlend mode="normal" in2="BackgroundImageFix" result="effect1_dropShadow_1_677" />
            <feBlend mode="normal" in="SourceGraphic" in2="effect1_dropShadow_1_677" result="shape" />
        </filter>
        <filter id="filter3_d_1_677" x="15.9152" y="16.9181" width="21.079" height="11.4861"
            filterUnits="userSpaceOnUse" color-interpolation-filters="sRGB">
            <feFlood flood-opacity="0" result="BackgroundImageFix" />
            <feColorMatrix in="SourceAlpha" type="matrix" values="0 0 0 0 0 0 0 0 0 0 0 0 0 0 0 0 0 0 127 0"
                result="hardAlpha" />
            <feOffset />
            <feGaussianBlur stdDeviation="1.78949" />
            <feComposite in2="hardAlpha" operator="out" />
            <feColorMatrix type="matrix" values="0 0 0 0 1 0 0 0 0 1 0 0 0 0 1 0 0 0 1 0" />
            <feBlend mode="normal" in2="BackgroundImageFix" result="effect1_dropShadow_1_677" />
            <feBlend mode="normal" in="SourceGraphic" in2="effect1_dropShadow_1_677" result="shape" />
        </filter>
        <linearGradient id="paint0_linear_1_677" x1="25.6806" y1="43.1922" x2="26.501" y2="6.86591"
            gradientUnits="userSpaceOnUse">
            <stop stop-color="#0721D7" />
            <stop offset="1" stop-color="#4758FF" />
        </linearGradient>
        <linearGradient id="paint1_linear_1_677" x1="25.6806" y1="43.1922" x2="26.501" y2="6.86591"
            gradientUnits="userSpaceOnUse">
            <stop stop-color="#641BFE" />
            <stop offset="1" stop-color="#1CA1DA" />
        </linearGradient>
        <linearGradient id="paint2_linear_1_677" x1="25.0251" y1="22.2647" x2="25.0671" y2="38.386"
            gradientUnits="userSpaceOnUse">
            <stop stop-color="#5474FF" stop-opacity="0.66" />
            <stop offset="0.603451" stop-color="#C9C9ED" stop-opacity="0.76" />
            <stop offset="1" stop-color="#E8E0ED" />
        </linearGradient>
        <linearGradient id="paint3_linear_1_677" x1="25.2749" y1="15.6453" x2="24.7641" y2="32.21"
            gradientUnits="userSpaceOnUse">
            <stop offset="0.206991" stop-color="#5474FF" stop-opacity="0.66" />
            <stop offset="0.687895" stop-color="#C9C9ED" stop-opacity="0.76" />
            <stop offset="1" stop-color="#E8E0ED" />
        </linearGradient>
        <linearGradient id="paint4_linear_1_677" x1="25.2069" y1="9.10418" x2="25.7565" y2="25.2977"
            gradientUnits="userSpaceOnUse">
            <stop stop-color="#5474FF" stop-opacity="0.66" />
            <stop offset="0.52795" stop-color="#C9C9ED" stop-opacity="0.76" />
            <stop offset="1" stop-color="#E8E0ED" />
        </linearGradient>
    </defs>
</svg>