<svg width="467" height="729" viewBox="0 0 467 729" fill="none" xmlns="http://www.w3.org/2000/svg">
    <path
        d="M217.982 124.949C349.762 183.494 405.976 337.589 343.526 469.135C281.076 600.681 123.618 659.85 -8.16251 601.306C-139.943 542.761 -196.156 388.666 -133.706 257.12C-71.2564 125.574 86.202 66.4051 217.982 124.949Z"
        stroke="#D5DAE1" stroke-width="0.940453" />
    <path
        d="M183.867 181.904C322.87 243.658 382.165 406.199 316.292 544.955C250.419 683.711 84.3305 746.124 -54.6731 684.37C-193.677 622.617 -252.971 460.076 -187.098 321.32C-121.226 182.564 44.8633 120.151 183.867 181.904Z"
        stroke="#D5DAE1" stroke-width="0.940453" />
    <path
        d="M366.13 405.771L364.543 420.198L376.732 428.388L361.715 427.294L352.802 439.221L354.39 424.794L342.201 416.604L357.218 417.698L366.13 405.771Z"
        fill="#FC7F39" fill-opacity="0.85" />
</svg>