<svg width="603" height="588" viewBox="0 0 603 588" fill="none" xmlns="http://www.w3.org/2000/svg">
    <path
        d="M266.118 -102.989C127.115 -41.2354 67.8202 121.306 133.693 260.062C199.566 398.818 365.655 461.23 504.658 399.477C643.662 337.724 702.957 175.183 637.084 36.4265C571.211 -102.33 405.122 -164.742 266.118 -102.989Z"
        stroke="#D5DAE1" stroke-width="0.940453" />
    <path
        d="M313.308 -51.8438C174.305 9.90963 115.01 172.451 180.883 311.207C246.756 449.963 412.845 512.375 551.848 450.622C690.852 388.869 750.146 226.328 684.274 87.5715C618.401 -51.1845 452.312 -113.597 313.308 -51.8438Z"
        stroke="#D5DAE1" stroke-width="0.940453" />
    <path
        d="M120.045 226.023L121.633 240.45L109.444 248.64L124.46 247.546L133.373 259.473L131.785 245.046L143.974 236.856L128.958 237.95L120.045 226.023Z"
        fill="#FC7F39" fill-opacity="0.85" />
</svg>