<svg width="677" height="658" viewBox="0 0 677 658" fill="none" xmlns="http://www.w3.org/2000/svg">
    <rect x="152.5" y="2" width="524" height="128" rx="16" fill="#ECEEFF" />
    <path
        d="M229.578 52.0143L230.228 59.1697L234.782 55.9172L239.335 57.5435L246.165 57.2182L252.02 54.291L254.947 50.7133V46.1598L252.67 41.6064L248.767 38.3539L245.19 36.7277L238.359 36.0772L231.854 38.0287L229.252 39.9801L226.976 43.2326V47.4608L229.578 52.0143Z"
        fill="#212121" />
    <path
        d="M217.049 59.2686H220.889L221.044 64.8804C221.055 65.2821 221.384 65.6001 221.783 65.6001H221.804C222.212 65.5885 222.534 65.2484 222.523 64.8399L222.369 59.2686H226.294C227.272 59.2686 227.273 57.7888 226.294 57.7888H217.049C216.64 57.7888 216.309 58.1202 216.309 58.5287C216.309 58.9372 216.64 59.2686 217.049 59.2686Z"
        fill="#212121" />
    <path
        d="M200.961 62.8641H216.865C217.273 62.8641 217.604 62.5327 217.604 62.1242C217.604 61.7157 217.273 61.3843 216.865 61.3843H200.961C200.552 61.3843 200.221 61.7157 200.221 62.1242C200.221 62.5327 200.552 62.8641 200.961 62.8641Z"
        fill="#212121" />
    <path
        d="M227.838 72.5226C227.838 72.1142 227.506 71.7827 227.098 71.7827H201.05C200.641 71.7827 200.31 72.1142 200.31 72.5226C200.31 72.9311 200.641 73.2625 201.05 73.2625H227.098C227.506 73.2625 227.838 72.9311 227.838 72.5226Z"
        fill="#212121" />
    <path
        d="M224.653 81.9821C224.653 81.5736 224.321 81.2422 223.913 81.2422H206.257C205.849 81.2422 205.518 81.5736 205.518 81.9821C205.518 82.3905 205.849 82.7219 206.257 82.7219H223.913C224.321 82.7219 224.653 82.3905 224.653 81.9821Z"
        fill="#212121" />
    <path
        d="M217.139 88.2781H211.64C211.232 88.2781 210.901 88.6095 210.901 89.018C210.901 89.4265 211.232 89.7579 211.64 89.7579H217.139C217.547 89.7579 217.878 89.4265 217.878 89.018C217.878 88.6095 217.547 88.2781 217.139 88.2781Z"
        fill="#212121" />
    <path
        d="M250.509 71.7671L233.272 80.9315C233.105 72.9299 233.055 66.8433 233.261 59.0577C233.856 58.5435 234.664 57.7441 235.265 57.0295C238.906 58.536 242.476 59.0993 246.147 58.3398C256.952 56.104 259.223 44.7139 250.665 38.6617C244.397 34.24 233.169 34.0842 228.331 39.8602C225.783 42.8812 225.427 46.9566 227.398 50.2808C226.074 50.3068 224.513 50.4309 222.126 50.6002C210.794 51.4088 207.06 50.9817 195.211 50.9538H195.209C194.905 50.9538 194.595 51.1305 194.502 51.5278C194.051 52.0602 193.601 52.5927 193.151 53.1253C193.663 66.4387 193.782 80.8152 194.294 94.1287C194.334 95.16 194.715 95.8952 195.546 96.2435C195.669 96.3758 195.839 96.4642 196.031 96.4784C203.017 96.9957 211.452 96.5942 218.457 96.1095C226.992 95.5225 226.18 95.7042 232.774 96.016C233.191 96.0363 233.552 95.7014 233.549 95.2723C233.54 93.7701 233.529 92.2457 233.503 90.7002L254.81 79.3713C255.642 78.9291 256.256 78.1112 256.538 77.0678C256.868 75.8462 256.699 74.5244 256.085 73.5321C255.022 71.8134 252.526 70.6939 250.509 71.7671ZM231.67 89.9991C231.677 89.1137 231.538 88.5872 230.899 87.9022C237.366 84.5336 244.617 80.9901 250.712 77.207L251.528 78.6652C251.544 78.9382 251.51 79.1458 251.441 79.2605C251.388 79.3486 251.356 79.4433 251.343 79.5392L231.67 89.9991ZM226.931 90.8925C226.513 90.0985 226.145 89.2129 225.613 88.5198C226.719 86.6779 226.826 86.4922 226.943 86.2935C227.27 86.3514 227.934 86.6838 228.26 86.9687C228.977 87.593 228.555 88.2815 229.284 88.5082C229.597 88.6055 230.078 89.1007 230.142 89.3916C230.233 89.8047 230.188 90.3879 230.095 90.6485C229.123 90.7882 228.027 90.857 226.931 90.8925ZM248.608 74.4536C248.894 74.5578 249.174 74.7231 249.442 74.9367L249.989 75.9143C244.168 79.5336 237.202 82.9731 229.921 86.7443C229.541 86.0134 229.036 85.63 228.308 85.2461L248.608 74.4536ZM229.463 40.812C232.951 36.6504 240.283 36.0889 245.654 37.836L245.655 37.837C252.961 40.1907 255.546 46.3026 253.973 50.2562C252.178 54.7892 244.646 58.0548 236.426 55.264L236.184 55.1773C234.079 54.4004 233.977 55.1639 230.744 58.0194C230.684 56.2583 230.568 54.2708 230.273 51.8121C230.211 51.2934 229.727 51.2669 228.712 49.6108C227.012 46.8227 227.306 43.3698 229.463 40.812ZM232.065 94.4977C218.419 93.7714 210.432 95.9733 196.808 95.0497C196.454 81.0947 196.321 66.4414 195.968 52.4355C207.087 52.4799 211.075 52.8739 222.231 52.0761C224.775 51.8988 226.765 51.7236 228.452 51.7637C228.578 51.9175 228.697 52.0756 228.831 52.2245C229.622 58.9987 228.89 59.3937 229.756 59.9057C230.055 60.0829 230.393 60.097 230.744 59.9035C231.201 59.9543 231.46 60.0104 231.759 59.9876C231.557 67.5462 231.66 74.8895 231.806 81.7107C226.079 84.8008 226.232 84.5725 226.041 84.9041C224.624 87.3821 223.284 89.2736 222.389 91.4842C222.192 91.9694 222.549 92.5295 223.132 92.4996C225.135 92.3431 228.478 92.49 230.957 92.016C231.143 91.9816 231.199 91.9146 232.032 91.4825C232.045 92.494 232.058 93.5054 232.065 94.4977Z"
        fill="#212121" />
    <path
        d="M248.746 49.337C250.006 49.1936 250.726 47.8417 249.909 46.8196C249.799 46.1441 248.44 45.6023 247.441 46.2213C246.725 46.6635 246.454 47.5595 246.809 48.3051C247.146 49.0158 247.981 49.43 248.746 49.337Z"
        fill="white" />
    <path
        d="M243.389 46.9462C243.485 46.5001 243.357 46.0396 243.075 45.687C242.966 45.0079 241.601 44.4718 240.606 45.0878C239.892 45.529 239.62 46.4259 239.974 47.1726C240.684 48.667 243.054 48.5087 243.389 46.9462Z"
        fill="white" />
    <path
        d="M234.874 47.0366C236.134 46.8897 236.852 45.5371 236.034 44.5192C236.006 44.341 235.913 44.1734 235.759 44.0539C234.274 42.8933 232.151 44.3569 232.934 46.0048C233.232 46.6329 234.035 47.1273 234.874 47.0366Z"
        fill="white" />
    <path
        d="M305.929 45.38C300.629 45.38 298.489 41.16 298.489 37.88V37.44C298.489 33.84 300.729 29.98 305.829 29.98C309.769 29.98 312.329 32.26 312.689 35.7H309.829C309.509 33.7 307.929 32.62 305.829 32.62C302.929 32.62 301.369 34.74 301.369 37.68C301.369 40.56 302.969 42.74 305.929 42.74C308.109 42.74 309.749 41.6 310.069 39.66H312.929C312.549 42.8 310.089 45.38 305.929 45.38ZM317.886 45H315.106V34.14H317.306V37.68C317.586 35.26 318.926 34 321.186 34H321.586V36.42H320.826C318.946 36.42 317.886 37.46 317.886 39.34V45ZM326.467 45.28C324.087 45.28 322.527 44 322.527 41.78C322.527 39.4 324.387 38.3 327.287 38.3H329.507V38.2C329.507 36.96 328.887 36.34 327.627 36.34C326.627 36.34 324.867 36.4 323.747 36.48V34.12C324.667 34.04 326.047 33.98 327.127 33.98C330.467 33.98 332.167 35.24 332.167 38.26V45H329.967V42.92C329.487 44.46 328.307 45.28 326.467 45.28ZM327.247 43.3C328.387 43.3 329.427 42.76 329.507 40.98V39.96H327.247C325.987 39.96 325.267 40.64 325.267 41.64C325.267 42.64 325.967 43.3 327.247 43.3ZM338.005 45H335.405V36.36H334.045V34.32H335.405V33.88C335.405 31.4 336.805 30.24 339.485 30.24H340.845V32.38H339.285C338.465 32.38 338.005 32.84 338.005 33.64V34.32H341.025V36.36H338.005V45ZM349.238 45.14H347.678C344.678 45.14 343.278 44.1 343.278 40.92V36.18H341.558V34.14H343.298V31.08H345.898V34.14H349.238V36.18H345.878V41.1C345.878 42.16 346.478 42.76 347.538 42.76H349.238V45.14ZM360.707 45.38C356.967 45.38 355.167 42.56 355.167 39.78V39.4C355.167 36.5 357.047 33.76 360.687 33.76C363.527 33.76 365.587 35.52 365.767 38.12H363.067C362.927 37 362.107 36.16 360.687 36.16C358.827 36.16 357.947 37.58 357.947 39.58C357.947 41.52 358.767 42.98 360.707 42.98C362.147 42.98 363.027 42.14 363.167 40.96H365.867C365.707 43.62 363.567 45.38 360.707 45.38ZM373.314 45.38C369.494 45.38 367.374 42.68 367.374 39.8V39.38C367.374 36.4 369.614 33.76 373.314 33.76C376.994 33.76 379.234 36.4 379.234 39.38V39.8C379.234 42.68 377.114 45.38 373.314 45.38ZM373.314 43C375.334 43 376.454 41.54 376.454 39.58C376.454 37.6 375.274 36.14 373.314 36.14C371.334 36.14 370.154 37.6 370.154 39.58C370.154 41.54 371.274 43 373.314 43ZM384.448 49H381.668V34.14H383.868V36.86C384.548 34.82 386.148 33.8 388.128 33.8C391.188 33.8 393.208 36.22 393.208 39.34V39.76C393.208 42.88 391.248 45.36 388.128 45.36C386.628 45.36 385.288 44.8 384.448 43.56V49ZM387.428 43.02C389.208 43.02 390.428 41.6 390.428 39.56C390.428 37.52 389.228 36.14 387.428 36.14C385.788 36.14 384.368 37.28 384.368 39.24V40.04C384.368 41.92 385.868 43.02 387.428 43.02ZM396.878 49.28H395.098V46.9H397.138C398.278 46.9 398.858 46.52 399.158 45.36L399.318 44.76H397.538L394.018 34.14H396.818L399.458 42.56H399.878L402.078 34.14H404.738L401.518 45.96C400.858 48.38 399.558 49.28 396.878 49.28ZM415.225 45.4C412.045 45.4 409.905 43.36 409.905 40.74V40.46C409.905 38.7 410.945 37.2 412.425 36.34C412.045 35.64 411.905 34.98 411.905 34.2C411.905 31.7 413.405 30.22 416.925 30.22C417.865 30.22 418.985 30.32 419.805 30.44V32.76C418.985 32.66 417.405 32.54 416.645 32.54C414.965 32.54 414.485 33.18 414.485 34.32C414.485 35.34 414.925 36.12 415.985 37.28L419.025 40.54C419.425 39.64 419.665 38.5 419.705 37.08H417.685V35.02H423.225V37.08H422.145C422.085 39.24 421.565 41 420.725 42.36L423.185 45H420.065L419.205 44.06C418.085 44.94 416.725 45.4 415.225 45.4ZM412.485 40.48C412.485 42.08 413.565 43.1 415.345 43.1C416.185 43.1 416.965 42.86 417.625 42.38L414.345 38.84C414.065 38.54 413.825 38.26 413.585 38C412.945 38.56 412.485 39.44 412.485 40.48ZM434.438 45.38C430.698 45.38 428.898 42.56 428.898 39.78V39.4C428.898 36.5 430.778 33.76 434.418 33.76C437.258 33.76 439.318 35.52 439.498 38.12H436.798C436.658 37 435.838 36.16 434.418 36.16C432.558 36.16 431.678 37.58 431.678 39.58C431.678 41.52 432.498 42.98 434.438 42.98C435.878 42.98 436.758 42.14 436.898 40.96H439.598C439.438 43.62 437.298 45.38 434.438 45.38ZM447.045 45.38C443.225 45.38 441.105 42.68 441.105 39.8V39.38C441.105 36.4 443.345 33.76 447.045 33.76C450.725 33.76 452.965 36.4 452.965 39.38V39.8C452.965 42.68 450.845 45.38 447.045 45.38ZM447.045 43C449.065 43 450.185 41.54 450.185 39.58C450.185 37.6 449.005 36.14 447.045 36.14C445.065 36.14 443.885 37.6 443.885 39.58C443.885 41.54 445.005 43 447.045 43ZM458.179 45H455.399V34.14H457.599V36.82C458.059 34.82 459.299 33.8 461.319 33.8H461.439C464.019 33.8 465.379 35.48 465.379 38.78V45H462.599V38.54C462.599 37.2 461.779 36.3 460.459 36.3C459.099 36.3 458.179 37.22 458.179 38.62V45ZM474.648 45.14H473.088C470.088 45.14 468.688 44.1 468.688 40.92V36.18H466.968V34.14H468.708V31.08H471.308V34.14H474.648V36.18H471.288V41.1C471.288 42.16 471.888 42.76 472.948 42.76H474.648V45.14ZM481.782 45.38C478.042 45.38 476.202 42.54 476.202 39.76V39.38C476.202 36.5 478.082 33.76 481.662 33.76C485.162 33.76 487.002 36.38 487.002 39.24V40.24H478.842C479.022 41.94 479.942 43.08 481.782 43.08C483.122 43.08 484.022 42.46 484.262 41.66H486.822C486.342 43.9 484.462 45.38 481.782 45.38ZM481.662 36.06C480.102 36.06 479.162 36.98 478.882 38.54H484.342C484.122 36.96 483.222 36.06 481.662 36.06ZM492.105 45H489.325V34.14H491.525V36.82C491.985 34.82 493.225 33.8 495.245 33.8H495.365C497.945 33.8 499.305 35.48 499.305 38.78V45H496.525V38.54C496.525 37.2 495.705 36.3 494.385 36.3C493.025 36.3 492.105 37.22 492.105 38.62V45ZM508.573 45.14H507.013C504.013 45.14 502.613 44.1 502.613 40.92V36.18H500.893V34.14H502.633V31.08H505.233V34.14H508.573V36.18H505.213V41.1C505.213 42.16 505.813 42.76 506.873 42.76H508.573V45.14ZM520.043 45.38C516.303 45.38 514.503 42.56 514.503 39.78V39.4C514.503 36.5 516.383 33.76 520.023 33.76C522.863 33.76 524.923 35.52 525.103 38.12H522.403C522.263 37 521.443 36.16 520.023 36.16C518.163 36.16 517.283 37.58 517.283 39.58C517.283 41.52 518.103 42.98 520.043 42.98C521.483 42.98 522.363 42.14 522.503 40.96H525.203C525.043 43.62 522.903 45.38 520.043 45.38ZM532.65 45.38C528.83 45.38 526.71 42.68 526.71 39.8V39.38C526.71 36.4 528.95 33.76 532.65 33.76C536.33 33.76 538.57 36.4 538.57 39.38V39.8C538.57 42.68 536.45 45.38 532.65 45.38ZM532.65 43C534.67 43 535.79 41.54 535.79 39.58C535.79 37.6 534.61 36.14 532.65 36.14C530.67 36.14 529.49 37.6 529.49 39.58C529.49 41.54 530.61 43 532.65 43ZM543.784 45H541.004V34.14H543.204V36.82C543.664 34.82 544.904 33.8 546.924 33.8H547.044C549.624 33.8 550.984 35.48 550.984 38.78V45H548.204V38.54C548.204 37.2 547.384 36.3 546.064 36.3C544.704 36.3 543.784 37.22 543.784 38.62V45ZM560.535 45H556.075L552.675 34.14H555.535L558.115 42.72H558.575L560.795 34.14H563.475L560.535 45ZM570.2 45.38C566.46 45.38 564.62 42.54 564.62 39.76V39.38C564.62 36.5 566.5 33.76 570.08 33.76C573.58 33.76 575.42 36.38 575.42 39.24V40.24H567.26C567.44 41.94 568.36 43.08 570.2 43.08C571.54 43.08 572.44 42.46 572.68 41.66H575.24C574.76 43.9 572.88 45.38 570.2 45.38ZM570.08 36.06C568.52 36.06 567.58 36.98 567.3 38.54H572.76C572.54 36.96 571.64 36.06 570.08 36.06ZM580.523 45H577.743V34.14H579.943V37.68C580.223 35.26 581.563 34 583.823 34H584.223V36.42H583.463C581.583 36.42 580.523 37.46 580.523 39.34V45ZM592.597 45.14H591.037C588.037 45.14 586.637 44.1 586.637 40.92V36.18H584.917V34.14H586.657V31.08H589.257V34.14H592.597V36.18H589.237V41.1C589.237 42.16 589.837 42.76 590.897 42.76H592.597V45.14ZM598.792 45.34C595.792 45.34 594.032 44 593.952 41.76H596.452C596.512 42.52 597.232 43.24 598.832 43.24C600.152 43.24 601.012 42.72 601.012 41.9C601.012 41.18 600.492 40.76 599.032 40.62L598.072 40.52C595.632 40.26 594.292 39.1 594.292 37.24C594.292 35.02 596.112 33.82 598.672 33.82C601.352 33.82 603.132 35.02 603.212 37.28H600.712C600.652 36.52 599.972 35.92 598.652 35.92C597.472 35.92 596.812 36.42 596.812 37.14C596.812 37.82 597.292 38.18 598.472 38.32L599.432 38.42C601.972 38.68 603.532 39.86 603.532 41.8C603.532 43.94 601.652 45.34 598.792 45.34ZM303.989 69.38C300.249 69.38 298.409 66.54 298.409 63.76V63.38C298.409 60.5 300.289 57.76 303.869 57.76C307.369 57.76 309.209 60.38 309.209 63.24V64.24H301.049C301.229 65.94 302.149 67.08 303.989 67.08C305.329 67.08 306.229 66.46 306.469 65.66H309.029C308.549 67.9 306.669 69.38 303.989 69.38ZM303.869 60.06C302.309 60.06 301.369 60.98 301.089 62.54H306.549C306.329 60.96 305.429 60.06 303.869 60.06ZM314.372 69H311.772V60.36H310.432V58.32H311.772V57.76C311.772 55.28 313.172 54.12 315.852 54.12H316.872V56.26H315.652C314.832 56.26 314.372 56.72 314.372 57.52V58.32H318.852V57.88C318.852 55.4 320.252 54.24 322.932 54.24H324.252V56.38H322.732C321.912 56.38 321.452 56.84 321.452 57.64V58.32H324.432V60.36H321.452V69H318.852V60.36H314.372V69ZM330.982 69.38C327.242 69.38 325.402 66.54 325.402 63.76V63.38C325.402 60.5 327.282 57.76 330.862 57.76C334.362 57.76 336.202 60.38 336.202 63.24V64.24H328.042C328.222 65.94 329.142 67.08 330.982 67.08C332.322 67.08 333.222 66.46 333.462 65.66H336.022C335.542 67.9 333.662 69.38 330.982 69.38ZM330.862 60.06C329.302 60.06 328.362 60.98 328.082 62.54H333.542C333.322 60.96 332.422 60.06 330.862 60.06ZM343.344 69.38C339.604 69.38 337.804 66.56 337.804 63.78V63.4C337.804 60.5 339.684 57.76 343.324 57.76C346.164 57.76 348.224 59.52 348.404 62.12H345.704C345.564 61 344.744 60.16 343.324 60.16C341.464 60.16 340.584 61.58 340.584 63.58C340.584 65.52 341.404 66.98 343.344 66.98C344.784 66.98 345.664 66.14 345.804 64.96H348.504C348.344 67.62 346.204 69.38 343.344 69.38ZM357.011 69.14H355.451C352.451 69.14 351.051 68.1 351.051 64.92V60.18H349.331V58.14H351.071V55.08H353.671V58.14H357.011V60.18H353.651V65.1C353.651 66.16 354.251 66.76 355.311 66.76H357.011V69.14ZM360.884 56.84C359.784 56.84 359.284 56.2 359.284 55.32C359.284 54.44 359.784 53.82 360.884 53.82C361.964 53.82 362.464 54.44 362.464 55.32C362.464 56.2 361.964 56.84 360.884 56.84ZM362.644 69H359.864V60.22H358.344V58.14H362.644V69ZM372.488 69H368.028L364.628 58.14H367.488L370.068 66.72H370.528L372.748 58.14H375.428L372.488 69ZM382.153 69.38C378.413 69.38 376.573 66.54 376.573 63.76V63.38C376.573 60.5 378.453 57.76 382.033 57.76C385.533 57.76 387.373 60.38 387.373 63.24V64.24H379.213C379.393 65.94 380.313 67.08 382.153 67.08C383.493 67.08 384.393 66.46 384.633 65.66H387.193C386.713 67.9 384.833 69.38 382.153 69.38ZM382.033 60.06C380.473 60.06 379.533 60.98 379.253 62.54H384.713C384.493 60.96 383.593 60.06 382.033 60.06ZM392.616 69H389.836V56.48H388.476V54.4H392.616V69ZM397.25 73.28H395.47V70.9H397.51C398.65 70.9 399.23 70.52 399.53 69.36L399.69 68.76H397.91L394.39 58.14H397.19L399.83 66.56H400.25L402.45 58.14H405.11L401.89 69.96C401.23 72.38 399.93 73.28 397.25 73.28ZM408.958 69H405.838V65.8H408.958V69Z"
        fill="#1E2238" />
    <path
        d="M300.39 94.8182V100H298.691V91.2727H300.322V92.6932H300.43C300.631 92.2311 300.945 91.8598 301.373 91.5795C301.805 91.2992 302.349 91.1591 303.004 91.1591C303.599 91.1591 304.119 91.2841 304.566 91.5341C305.013 91.7803 305.36 92.1477 305.606 92.6364C305.852 93.125 305.976 93.7292 305.976 94.4489V100H304.277V94.6534C304.277 94.0208 304.112 93.5265 303.782 93.1705C303.453 92.8106 303 92.6307 302.424 92.6307C302.03 92.6307 301.68 92.7159 301.373 92.8864C301.07 93.0568 300.83 93.3068 300.652 93.6364C300.477 93.9621 300.39 94.3561 300.39 94.8182ZM311.93 100.176C311.112 100.176 310.398 99.9886 309.788 99.6136C309.178 99.2386 308.705 98.714 308.368 98.0398C308.03 97.3655 307.862 96.5777 307.862 95.6761C307.862 94.7708 308.03 93.9792 308.368 93.3011C308.705 92.6231 309.178 92.0966 309.788 91.7216C310.398 91.3466 311.112 91.1591 311.93 91.1591C312.748 91.1591 313.462 91.3466 314.072 91.7216C314.682 92.0966 315.155 92.6231 315.493 93.3011C315.83 93.9792 315.998 94.7708 315.998 95.6761C315.998 96.5777 315.83 97.3655 315.493 98.0398C315.155 98.714 314.682 99.2386 314.072 99.6136C313.462 99.9886 312.748 100.176 311.93 100.176ZM311.936 98.75C312.466 98.75 312.905 98.6098 313.254 98.3295C313.602 98.0492 313.86 97.6761 314.027 97.2102C314.197 96.7443 314.282 96.2311 314.282 95.6705C314.282 95.1136 314.197 94.6023 314.027 94.1364C313.86 93.6667 313.602 93.2898 313.254 93.0057C312.905 92.7216 312.466 92.5795 311.936 92.5795C311.402 92.5795 310.958 92.7216 310.606 93.0057C310.258 93.2898 309.998 93.6667 309.828 94.1364C309.661 94.6023 309.578 95.1136 309.578 95.6705C309.578 96.2311 309.661 96.7443 309.828 97.2102C309.998 97.6761 310.258 98.0492 310.606 98.3295C310.958 98.6098 311.402 98.75 311.936 98.75ZM313.095 90.2273L311.93 88.7045L310.76 90.2273H309.226V90.142L311.22 87.733H312.635L314.635 90.142V90.2273H313.095ZM311.93 103.011C311.638 103.011 311.386 102.913 311.174 102.716C310.962 102.519 310.856 102.28 310.856 102C310.856 101.72 310.962 101.481 311.174 101.284C311.386 101.087 311.638 100.989 311.93 100.989C312.226 100.989 312.477 101.087 312.686 101.284C312.898 101.481 313.004 101.72 313.004 102C313.004 102.28 312.898 102.519 312.686 102.716C312.477 102.913 312.226 103.011 311.93 103.011ZM317.895 100V91.2727H319.593V100H317.895ZM318.753 89.9261C318.457 89.9261 318.203 89.8277 317.991 89.6307C317.783 89.4299 317.679 89.1913 317.679 88.9148C317.679 88.6345 317.783 88.3958 317.991 88.1989C318.203 87.9981 318.457 87.8977 318.753 87.8977C319.048 87.8977 319.3 87.9981 319.508 88.1989C319.72 88.3958 319.826 88.6345 319.826 88.9148C319.826 89.1913 319.72 89.4299 319.508 89.6307C319.3 89.8277 319.048 89.9261 318.753 89.9261ZM329.38 100.17C328.676 100.17 328.047 99.9905 327.494 99.6307C326.945 99.267 326.513 98.75 326.199 98.0795C325.888 97.4053 325.733 96.5966 325.733 95.6534C325.733 94.7102 325.89 93.9034 326.204 93.233C326.522 92.5625 326.958 92.0492 327.511 91.6932C328.064 91.3371 328.691 91.1591 329.392 91.1591C329.933 91.1591 330.369 91.25 330.699 91.4318C331.032 91.6098 331.289 91.8182 331.471 92.0568C331.657 92.2955 331.801 92.5057 331.903 92.6875H332.005V88.3636H333.704V100H332.045V98.642H331.903C331.801 98.8277 331.653 99.0398 331.46 99.2784C331.27 99.517 331.009 99.7254 330.676 99.9034C330.342 100.081 329.911 100.17 329.38 100.17ZM329.755 98.7216C330.244 98.7216 330.657 98.5928 330.994 98.3352C331.335 98.0739 331.592 97.7121 331.767 97.25C331.945 96.7879 332.034 96.25 332.034 95.6364C332.034 95.0303 331.947 94.5 331.772 94.0455C331.598 93.5909 331.342 93.2367 331.005 92.983C330.668 92.7292 330.252 92.6023 329.755 92.6023C329.244 92.6023 328.818 92.7348 328.477 93C328.136 93.2652 327.878 93.6269 327.704 94.0852C327.534 94.5436 327.449 95.0606 327.449 95.6364C327.449 96.2197 327.536 96.7443 327.71 97.2102C327.884 97.6761 328.142 98.0455 328.483 98.3182C328.827 98.5871 329.252 98.7216 329.755 98.7216ZM341.657 96.3807V91.2727H343.362V100H341.691V98.4886H341.601C341.4 98.9545 341.078 99.3428 340.635 99.6534C340.195 99.9602 339.648 100.114 338.993 100.114C338.432 100.114 337.936 99.9905 337.504 99.7443C337.076 99.4943 336.739 99.125 336.493 98.6364C336.25 98.1477 336.129 97.5436 336.129 96.8239V91.2727H337.828V96.6193C337.828 97.214 337.993 97.6875 338.322 98.0398C338.652 98.392 339.08 98.5682 339.606 98.5682C339.924 98.5682 340.241 98.4886 340.555 98.3295C340.873 98.1705 341.136 97.9299 341.345 97.608C341.557 97.286 341.661 96.8769 341.657 96.3807ZM347.343 94.8182V100H345.645V91.2727H347.275V92.6932H347.383C347.584 92.2311 347.898 91.8598 348.326 91.5795C348.758 91.2992 349.302 91.1591 349.957 91.1591C350.552 91.1591 351.073 91.2841 351.52 91.5341C351.967 91.7803 352.313 92.1477 352.559 92.6364C352.806 93.125 352.929 93.7292 352.929 94.4489V100H351.23V94.6534C351.23 94.0208 351.065 93.5265 350.735 93.1705C350.406 92.8106 349.953 92.6307 349.378 92.6307C348.984 92.6307 348.633 92.7159 348.326 92.8864C348.023 93.0568 347.783 93.3068 347.605 93.6364C347.431 93.9621 347.343 94.3561 347.343 94.8182ZM358.866 103.455C358.173 103.455 357.576 103.364 357.076 103.182C356.58 103 356.175 102.759 355.86 102.46C355.546 102.161 355.311 101.833 355.156 101.477L356.616 100.875C356.718 101.042 356.855 101.218 357.025 101.403C357.199 101.593 357.434 101.754 357.73 101.886C358.029 102.019 358.413 102.085 358.883 102.085C359.527 102.085 360.059 101.928 360.48 101.614C360.9 101.303 361.11 100.807 361.11 100.125V98.4091H361.003C360.9 98.5947 360.753 98.8011 360.559 99.0284C360.37 99.2557 360.109 99.4527 359.775 99.6193C359.442 99.786 359.008 99.8693 358.474 99.8693C357.785 99.8693 357.163 99.7083 356.61 99.3864C356.061 99.0606 355.626 98.5814 355.304 97.9489C354.985 97.3125 354.826 96.5303 354.826 95.6023C354.826 94.6742 354.984 93.8788 355.298 93.2159C355.616 92.553 356.052 92.0455 356.605 91.6932C357.158 91.3371 357.785 91.1591 358.485 91.1591C359.027 91.1591 359.465 91.25 359.798 91.4318C360.131 91.6098 360.391 91.8182 360.576 92.0568C360.766 92.2955 360.912 92.5057 361.014 92.6875H361.139V91.2727H362.804V100.193C362.804 100.943 362.629 101.559 362.281 102.04C361.932 102.521 361.461 102.877 360.866 103.108C360.275 103.339 359.609 103.455 358.866 103.455ZM358.849 98.4602C359.338 98.4602 359.751 98.3466 360.088 98.1193C360.429 97.8883 360.686 97.5587 360.86 97.1307C361.038 96.6989 361.128 96.1818 361.128 95.5795C361.128 94.9924 361.04 94.4754 360.866 94.0284C360.692 93.5814 360.436 93.233 360.099 92.983C359.762 92.7292 359.345 92.6023 358.849 92.6023C358.338 92.6023 357.912 92.7348 357.571 93C357.23 93.2614 356.972 93.6174 356.798 94.0682C356.628 94.5189 356.542 95.0227 356.542 95.5795C356.542 96.1515 356.629 96.6534 356.804 97.0852C356.978 97.517 357.235 97.8542 357.576 98.0966C357.921 98.339 358.345 98.4602 358.849 98.4602Z"
        fill="#656C7B" />
    <rect x="0.5" y="170" width="524" height="113.049" rx="16" fill="#ECEEFF" />
    <path
        d="M96.1767 231.233L99.0691 233.837L103.098 231.822C104.006 231.368 104.414 230.294 104.038 229.352L97.9334 214.092C97.5262 213.074 96.3605 212.591 95.3528 213.023L94.9992 213.174L90.5198 215.06C89.6649 215.42 89.1816 216.332 89.3635 217.241L89.6292 218.57C89.661 218.729 89.7124 218.883 89.7823 219.029L93.1208 226.01L95.7813 230.74C95.8854 230.925 96.0189 231.092 96.1767 231.233Z"
        fill="#212121" />
    <path
        d="M101.422 230.693C100.449 230.975 98.8023 231.924 97.7916 232.557C94.4334 228.027 90.9542 221.467 89.905 215.927C91.5282 215.479 95.031 213.982 96.6358 213.235C98.1831 216.866 99.1532 219.947 100.202 222.009C100.379 222.355 100.803 222.496 101.153 222.318C101.501 222.141 101.64 221.715 101.463 221.367C100.501 219.479 98.2024 212.994 97.6301 211.933C97.627 211.928 97.6213 211.925 97.6181 211.919C97.3438 211.303 96.6322 211.309 96.3471 211.81C94.8431 212.54 90.3647 214.437 89.2805 214.629C88.7483 214.459 88.2988 214.912 88.3728 215.401C88.4361 215.817 88.5153 216.24 88.6056 216.667C81.8298 218.618 79.0196 214.517 74.6183 215.311C73.7417 215.47 72.8726 215.757 72.0329 216.101C67.0325 212.954 59.9461 216.93 56.1626 214.773C54.9728 214.085 53.7424 213.426 52.5032 212.759C52.6054 212.225 52.6945 211.84 52.6497 211.65C52.5113 211.06 45.275 207.855 45.1218 207.865C45.1143 207.864 45.1086 207.859 45.1011 207.858C44.7163 207.799 44.3554 208.068 44.2983 208.454C43.9173 211.042 41.8097 217.071 41.1709 219.694C41.0788 220.074 41.3117 220.456 41.691 220.549C42.0798 220.641 42.4547 220.4 42.5452 220.028C43.1717 217.448 44.8662 212.683 45.5333 209.538C46.9005 210.203 49.9686 211.601 51.1715 212.195C50.5808 215.313 48.9575 223.391 46.9378 229.395C46.2549 228.989 45.3946 228.468 44.8014 228.119C44.111 227.714 43.3706 228.597 43.9335 229.203C44.0033 229.55 44.0614 229.915 44.1533 230.228C45.0642 230.899 46.2834 231.646 47.3269 232.083C47.5543 231.958 47.7246 231.503 47.7816 231.249C48.687 231.833 49.5904 232.646 50.4958 233.229C49.7596 234.007 49.8541 236.27 51.4771 237.853C52.1715 238.531 53.1991 238.916 54.1379 238.671C53.7243 241.392 56.2513 243.209 58.5805 242.607C58.5475 245.105 61.0114 247.003 63.4456 246.174C63.7894 247.439 64.7906 248.628 66.0347 249.04C67.2789 249.453 68.7224 249.201 69.7537 248.392C69.9036 248.275 70.0448 248.176 70.1872 248.075C72.0712 248.604 73.9885 248.332 75.6641 247.567C77.7302 248.464 80.0036 246.965 80.3052 245.084C82.4281 246.117 84.8278 244.447 85.0504 242.578C86.0256 242.848 87.1263 242.612 87.9056 241.967C88.6848 241.322 89.2696 240.052 89.1861 239.044C91.9781 237.46 94.6437 235.947 97.4993 234.327C97.5112 234.332 97.5239 234.332 97.536 234.336C98.0095 234.944 98.0763 234.938 98.3011 234.876C99.1825 234.66 101.036 233.836 101.808 233.359C102.02 232.835 102.037 232.753 102.124 231.849C102.632 231.309 102.093 230.492 101.422 230.693ZM73.7511 245.653C73.9005 245.783 74.0693 245.93 74.2539 246.077C73.2913 246.542 72.4124 246.586 71.8801 246.443C71.1482 246.245 70.1313 245.604 69.6654 244.935C69.8668 244.294 70.1852 243.742 70.3084 242.96C71.7043 244.037 72.7048 244.74 73.7511 245.653ZM68.9372 242.413C68.9579 242.809 68.7973 243.248 68.5902 243.767C68.141 244.894 68.1686 245.179 68.1271 245.681C68.1107 246.042 68.0898 246.538 68.2854 246.953C66.9041 247.456 65.2962 246.18 64.7979 244.917C65.8116 243.748 66.7426 242.498 67.581 241.196C67.5833 241.196 67.5854 241.197 67.5877 241.197C68.2348 241.159 68.9032 241.767 68.9372 242.413ZM66.624 240.097C66.2516 240.639 65.478 241.975 63.7324 243.988C63.6707 244.011 63.6049 244.022 63.5507 244.063C63.0739 244.418 62.4019 244.524 61.839 244.333C61.2761 244.141 60.8089 243.647 60.6483 243.074C60.5129 242.592 60.5133 241.828 60.5815 241.278C61.0706 240.674 60.8272 240.671 63.3206 237.863L63.7823 237.342C63.8092 237.311 63.8201 237.274 63.8408 237.24C64.4559 237.202 64.9487 237.259 65.3559 237.427C66.1802 237.768 66.7708 238.976 66.6193 240.012C66.6151 240.041 66.6246 240.068 66.624 240.097ZM59.4244 240.52C58.5434 240.888 57.4374 240.716 56.731 240.075C55.9969 239.409 55.7197 238.264 56.0574 237.332C57.7935 235.753 59.1538 233.676 61.0193 234.614C61.9255 235.071 62.4604 236.117 62.4378 236.511C62.4341 236.576 62.4514 236.636 62.4646 236.697C61.7113 237.547 59.9596 239.5 59.4244 240.52ZM55.744 235.674C55.455 235.968 55.1763 236.238 54.9095 236.463C54.0747 236.742 53.0186 236.364 52.5965 235.59C52.1544 234.779 52.4512 233.619 53.2107 233.098C55.0343 232.944 56.1961 234.72 55.744 235.674ZM74.8696 216.703C78.5029 216.048 81.9277 220.029 88.9388 218.042C90.2582 222.968 93.0861 228.319 95.8971 232.345C93.0284 233.296 90.7617 234.548 88.0562 236.661C87.5671 235.535 86.865 234.831 85.863 233.857C82.3544 230.436 78.2313 225.534 73.9522 223.137C74.0663 223.124 74.1778 223.114 74.2758 223.116C74.6675 223.145 74.9915 222.821 75.0035 222.431C75.0155 222.041 74.7085 221.715 74.3182 221.703C72.9245 221.649 70.8464 222.559 69.8403 223.619C68.1869 225.345 67.2373 227.95 65.1815 228.708C64.5702 228.934 63.762 228.889 63.4734 228.427C63.2355 228.037 63.1204 227.203 63.2272 226.639C63.5595 224.831 64.3125 223.699 65.4236 222.177C66.2355 221.061 67.5739 219.972 69.2907 219.03C70.9964 218.104 72.93 217.054 74.8696 216.703ZM55.4584 215.999C59.5166 218.312 65.8904 214.995 70.409 216.844C68.1375 217.98 65.782 219.282 64.2807 221.344C63.0932 222.971 62.2224 224.285 61.8372 226.38C61.6881 227.168 61.7875 228.377 62.2703 229.169C62.9636 230.28 64.4865 230.474 65.6712 230.034C67.3858 229.403 68.4615 227.886 69.4025 226.508C70.4355 224.993 70.8648 224.375 72.0591 223.765C76.4641 225.736 80.5682 230.573 84.0946 234.1C84.9969 235.002 85.2735 235.228 85.9228 235.942C87.9521 238.17 86.9031 240.47 85.2025 240.237C83.9704 240.073 82.943 238.876 81.9816 237.977C80.2477 236.359 78.4366 234.61 76.9334 232.79C76.6858 232.488 76.2393 232.446 75.9383 232.695C75.6373 232.944 75.5945 233.389 75.8435 233.69C77.3973 235.572 79.2481 237.36 81.0168 239.011C81.7201 239.668 82.4899 240.509 83.4373 241.069C83.0281 242.652 81.3766 243.507 79.8777 242.998C78.776 242.623 78.2978 241.989 73.5656 237.185C73.2927 236.908 72.8444 236.904 72.5659 237.178C72.2879 237.452 72.2843 237.9 72.5586 238.178C77.0057 242.686 77.5015 243.292 78.523 243.908C78.2384 245.2 77.3163 245.689 76.5583 245.642C75.9272 245.631 75.31 245.137 74.6809 244.588C73.0897 243.199 71.2984 242.037 69.7629 240.697C69.6836 240.628 69.5929 240.583 69.4982 240.555C69.098 240.172 68.5925 239.9 68.0434 239.812C68.0825 238.411 67.3402 236.717 65.8962 236.12C65.2824 235.867 64.5841 235.78 63.7428 235.833C63.4766 234.926 62.7223 233.889 61.6563 233.352C59.8318 232.431 58.3262 233.27 57.1106 234.337C56.5911 232.677 54.9076 231.456 53.0567 231.699C53.005 231.706 52.962 231.731 52.9148 231.748C52.8135 231.747 52.7145 231.767 52.618 231.811C51.0887 230.616 50.1579 230.142 48.4747 229.239C50.1218 224.171 51.4858 217.889 52.2192 214.214C53.3054 214.798 54.3922 215.383 55.4584 215.999Z"
        fill="#212121" />
    <path
        d="M47.6191 214.652C48.3091 214.384 48.4823 213.538 47.9629 213.018C47.3387 212.394 46.3019 212.798 46.2632 213.68C46.248 214.026 46.4008 214.348 46.671 214.542C46.9484 214.742 47.3058 214.774 47.6191 214.652Z"
        fill="#212121" />
    <path
        d="M91.2622 217.351C90.7556 218.741 91.8999 220.395 93.4862 219.965C94.4477 219.707 94.9829 218.84 94.7878 217.857C94.4058 215.931 91.8618 215.706 91.2622 217.351ZM93.1193 218.6C92.9509 218.643 92.8367 218.616 92.7355 218.506C92.5244 218.276 92.4423 217.717 92.8248 217.667C93.1347 217.626 93.3476 217.862 93.401 218.132C93.4751 218.504 93.2073 218.576 93.1193 218.6Z"
        fill="#212121" />
    <path
        d="M67.6933 212.118C67.8916 212.452 68.3243 212.565 68.6621 212.366C68.9981 212.166 69.109 211.733 68.9102 211.397L66.5767 207.456C66.3778 207.12 65.9447 207.009 65.6083 207.208C65.2723 207.406 65.1609 207.84 65.3597 208.176L67.6933 212.118Z"
        fill="#212121" />
    <path
        d="M71.9347 212.103C72.2776 212.103 72.5791 211.853 72.6325 211.504L73.5953 205.222C73.6547 204.836 73.3896 204.475 73.0039 204.417C72.6196 204.356 72.2569 204.622 72.198 205.008L71.2351 211.289C71.1693 211.717 71.5001 212.103 71.9347 212.103Z"
        fill="#212121" />
    <path
        d="M77.3434 211.364L79.3501 208.356C79.5669 208.031 79.479 207.592 79.1541 207.375C78.8291 207.158 78.3905 207.246 78.1737 207.571L76.167 210.58C75.9502 210.905 76.0381 211.344 76.363 211.56C76.6868 211.777 77.1264 211.69 77.3434 211.364Z"
        fill="#212121" />
    <path
        d="M152.318 206.616V208.604H146.047V206.616H152.318ZM147.595 204.002H150.166V214.243C150.166 214.589 150.218 214.854 150.322 215.039C150.431 215.219 150.573 215.342 150.748 215.408C150.923 215.474 151.118 215.508 151.331 215.508C151.492 215.508 151.638 215.496 151.771 215.472C151.908 215.448 152.012 215.427 152.083 215.408L152.517 217.418C152.379 217.466 152.183 217.518 151.927 217.574C151.676 217.631 151.369 217.664 151.004 217.674C150.36 217.693 149.78 217.596 149.264 217.383C148.748 217.165 148.338 216.829 148.035 216.374C147.737 215.92 147.59 215.351 147.595 214.67V204.002ZM154.468 217.525V206.616H157.039V217.525H154.468ZM155.761 205.067C155.353 205.067 155.003 204.932 154.71 204.662C154.416 204.388 154.269 204.059 154.269 203.675C154.269 203.287 154.416 202.958 154.71 202.688C155.003 202.413 155.353 202.276 155.761 202.276C156.173 202.276 156.523 202.413 156.812 202.688C157.105 202.958 157.252 203.287 157.252 203.675C157.252 204.059 157.105 204.388 156.812 204.662C156.523 204.932 156.173 205.067 155.761 205.067ZM164.512 217.738C163.419 217.738 162.474 217.51 161.679 217.056C160.888 216.597 160.279 215.948 159.853 215.11C159.427 214.267 159.214 213.275 159.214 212.134C159.214 211.012 159.427 210.027 159.853 209.18C160.284 208.327 160.886 207.664 161.657 207.191C162.429 206.713 163.336 206.474 164.378 206.474C165.05 206.474 165.684 206.582 166.281 206.8C166.882 207.013 167.413 207.345 167.872 207.795C168.336 208.244 168.7 208.817 168.966 209.513C169.231 210.205 169.363 211.028 169.363 211.985V212.773H160.422V211.04H166.899C166.894 210.548 166.788 210.11 166.579 209.726C166.371 209.338 166.08 209.033 165.706 208.81C165.336 208.588 164.905 208.476 164.413 208.476C163.887 208.476 163.426 208.604 163.028 208.86C162.63 209.111 162.32 209.442 162.098 209.854C161.88 210.261 161.769 210.709 161.764 211.197V212.709C161.764 213.344 161.88 213.888 162.112 214.343C162.344 214.793 162.668 215.138 163.085 215.38C163.502 215.617 163.989 215.735 164.548 215.735C164.922 215.735 165.261 215.683 165.564 215.579C165.867 215.47 166.129 215.311 166.352 215.103C166.574 214.894 166.743 214.636 166.856 214.329L169.257 214.599C169.105 215.233 168.816 215.787 168.39 216.26C167.969 216.729 167.429 217.094 166.771 217.354C166.113 217.61 165.36 217.738 164.512 217.738ZM165.748 205.309L164.306 203.491L162.865 205.309H160.613V205.209L163.305 202.141H165.315L168 205.209V205.309H165.748ZM178.491 212.937V206.616H181.063V217.525H178.57V215.586H178.456C178.21 216.197 177.805 216.696 177.241 217.084C176.683 217.473 175.994 217.667 175.175 217.667C174.46 217.667 173.828 217.508 173.278 217.191C172.734 216.869 172.308 216.403 172 215.792C171.692 215.176 171.538 214.433 171.538 213.562V206.616H174.109V213.164C174.109 213.855 174.299 214.404 174.678 214.812C175.056 215.219 175.554 215.422 176.169 215.422C176.548 215.422 176.915 215.33 177.27 215.145C177.625 214.961 177.916 214.686 178.143 214.322C178.375 213.952 178.491 213.491 178.491 212.937ZM192.716 217.716C191.859 217.716 191.092 217.496 190.414 217.056C189.737 216.616 189.202 215.976 188.809 215.138C188.416 214.3 188.22 213.282 188.22 212.084C188.22 210.872 188.419 209.849 188.816 209.016C189.219 208.178 189.761 207.546 190.443 207.12C191.125 206.689 191.885 206.474 192.723 206.474C193.362 206.474 193.887 206.582 194.299 206.8C194.711 207.013 195.038 207.271 195.279 207.574C195.521 207.873 195.708 208.154 195.841 208.42H195.947V202.979H198.525V217.525H195.997V215.806H195.841C195.708 216.071 195.516 216.353 195.265 216.651C195.014 216.945 194.683 217.196 194.271 217.404C193.859 217.612 193.341 217.716 192.716 217.716ZM193.433 215.607C193.977 215.607 194.441 215.46 194.825 215.167C195.208 214.868 195.5 214.454 195.699 213.924C195.897 213.394 195.997 212.776 195.997 212.07C195.997 211.365 195.897 210.751 195.699 210.231C195.504 209.71 195.216 209.305 194.832 209.016C194.453 208.727 193.987 208.583 193.433 208.583C192.86 208.583 192.382 208.732 191.998 209.03C191.615 209.329 191.326 209.741 191.132 210.266C190.938 210.792 190.841 211.393 190.841 212.07C190.841 212.752 190.938 213.36 191.132 213.895C191.331 214.426 191.622 214.845 192.005 215.153C192.394 215.456 192.869 215.607 193.433 215.607ZM193.064 205.799V204.172H199.868V205.799H193.064ZM206.094 217.738C205.001 217.738 204.056 217.51 203.261 217.056C202.47 216.597 201.862 215.948 201.435 215.11C201.009 214.267 200.796 213.275 200.796 212.134C200.796 211.012 201.009 210.027 201.435 209.18C201.866 208.327 202.468 207.664 203.239 207.191C204.011 206.713 204.918 206.474 205.96 206.474C206.632 206.474 207.266 206.582 207.863 206.8C208.464 207.013 208.995 207.345 209.454 207.795C209.918 208.244 210.282 208.817 210.548 209.513C210.813 210.205 210.945 211.028 210.945 211.985V212.773H202.004V211.04H208.481C208.476 210.548 208.37 210.11 208.161 209.726C207.953 209.338 207.662 209.033 207.288 208.81C206.918 208.588 206.487 208.476 205.995 208.476C205.469 208.476 205.008 208.604 204.61 208.86C204.212 209.111 203.902 209.442 203.68 209.854C203.462 210.261 203.351 210.709 203.346 211.197V212.709C203.346 213.344 203.462 213.888 203.694 214.343C203.926 214.793 204.25 215.138 204.667 215.38C205.084 215.617 205.571 215.735 206.13 215.735C206.504 215.735 206.843 215.683 207.146 215.579C207.449 215.47 207.711 215.311 207.934 215.103C208.157 214.894 208.325 214.636 208.438 214.329L210.839 214.599C210.687 215.233 210.398 215.787 209.972 216.26C209.551 216.729 209.011 217.094 208.353 217.354C207.695 217.61 206.942 217.738 206.094 217.738ZM206.677 203.072L209.56 205.408H207.423L205.889 204.101L204.333 205.408H202.21L205.065 203.072H206.677ZM201.379 201.36L202.948 203.988H201.343L199.127 201.36H201.379Z"
        fill="#1E2238" />
    <path
        d="M148.39 243.343V248.525H146.691V239.797H148.322V241.218H148.43C148.631 240.756 148.945 240.385 149.373 240.104C149.805 239.824 150.349 239.684 151.004 239.684C151.599 239.684 152.119 239.809 152.566 240.059C153.013 240.305 153.36 240.672 153.606 241.161C153.852 241.65 153.976 242.254 153.976 242.974V248.525H152.277V243.178C152.277 242.546 152.112 242.051 151.782 241.695C151.453 241.335 151 241.155 150.424 241.155C150.03 241.155 149.68 241.241 149.373 241.411C149.07 241.582 148.83 241.832 148.652 242.161C148.477 242.487 148.39 242.881 148.39 243.343ZM159.93 248.701C159.112 248.701 158.398 248.513 157.788 248.138C157.178 247.763 156.705 247.239 156.368 246.564C156.03 245.89 155.862 245.102 155.862 244.201C155.862 243.296 156.03 242.504 156.368 241.826C156.705 241.148 157.178 240.621 157.788 240.246C158.398 239.871 159.112 239.684 159.93 239.684C160.748 239.684 161.462 239.871 162.072 240.246C162.682 240.621 163.155 241.148 163.493 241.826C163.83 242.504 163.998 243.296 163.998 244.201C163.998 245.102 163.83 245.89 163.493 246.564C163.155 247.239 162.682 247.763 162.072 248.138C161.462 248.513 160.748 248.701 159.93 248.701ZM159.936 247.275C160.466 247.275 160.905 247.135 161.254 246.854C161.602 246.574 161.86 246.201 162.027 245.735C162.197 245.269 162.282 244.756 162.282 244.195C162.282 243.638 162.197 243.127 162.027 242.661C161.86 242.191 161.602 241.814 161.254 241.53C160.905 241.246 160.466 241.104 159.936 241.104C159.402 241.104 158.958 241.246 158.606 241.53C158.258 241.814 157.998 242.191 157.828 242.661C157.661 243.127 157.578 243.638 157.578 244.195C157.578 244.756 157.661 245.269 157.828 245.735C157.998 246.201 158.258 246.574 158.606 246.854C158.958 247.135 159.402 247.275 159.936 247.275ZM161.095 238.752L159.93 237.229L158.76 238.752H157.226V238.667L159.22 236.258H160.635L162.635 238.667V238.752H161.095ZM159.93 251.536C159.638 251.536 159.386 251.438 159.174 251.241C158.962 251.044 158.856 250.805 158.856 250.525C158.856 250.244 158.962 250.006 159.174 249.809C159.386 249.612 159.638 249.513 159.93 249.513C160.226 249.513 160.477 249.612 160.686 249.809C160.898 250.006 161.004 250.244 161.004 250.525C161.004 250.805 160.898 251.044 160.686 251.241C160.477 251.438 160.226 251.536 159.93 251.536ZM165.895 248.525V239.797H167.593V248.525H165.895ZM166.753 238.451C166.457 238.451 166.203 238.352 165.991 238.155C165.783 237.955 165.679 237.716 165.679 237.439C165.679 237.159 165.783 236.921 165.991 236.724C166.203 236.523 166.457 236.422 166.753 236.422C167.048 236.422 167.3 236.523 167.508 236.724C167.72 236.921 167.826 237.159 167.826 237.439C167.826 237.716 167.72 237.955 167.508 238.155C167.3 238.352 167.048 238.451 166.753 238.451ZM177.38 248.695C176.676 248.695 176.047 248.515 175.494 248.155C174.945 247.792 174.513 247.275 174.199 246.604C173.888 245.93 173.733 245.121 173.733 244.178C173.733 243.235 173.89 242.428 174.204 241.758C174.522 241.087 174.958 240.574 175.511 240.218C176.064 239.862 176.691 239.684 177.392 239.684C177.933 239.684 178.369 239.775 178.699 239.957C179.032 240.135 179.289 240.343 179.471 240.582C179.657 240.82 179.801 241.03 179.903 241.212H180.005V236.888H181.704V248.525H180.045V247.167H179.903C179.801 247.352 179.653 247.564 179.46 247.803C179.27 248.042 179.009 248.25 178.676 248.428C178.342 248.606 177.911 248.695 177.38 248.695ZM177.755 247.246C178.244 247.246 178.657 247.117 178.994 246.86C179.335 246.599 179.592 246.237 179.767 245.775C179.945 245.313 180.034 244.775 180.034 244.161C180.034 243.555 179.947 243.025 179.772 242.57C179.598 242.116 179.342 241.761 179.005 241.508C178.668 241.254 178.252 241.127 177.755 241.127C177.244 241.127 176.818 241.26 176.477 241.525C176.136 241.79 175.878 242.152 175.704 242.61C175.534 243.068 175.449 243.585 175.449 244.161C175.449 244.744 175.536 245.269 175.71 245.735C175.884 246.201 176.142 246.57 176.483 246.843C176.827 247.112 177.252 247.246 177.755 247.246ZM189.657 244.905V239.797H191.362V248.525H189.691V247.013H189.601C189.4 247.479 189.078 247.867 188.635 248.178C188.195 248.485 187.648 248.638 186.993 248.638C186.432 248.638 185.936 248.515 185.504 248.269C185.076 248.019 184.739 247.65 184.493 247.161C184.25 246.672 184.129 246.068 184.129 245.349V239.797H185.828V245.144C185.828 245.739 185.993 246.212 186.322 246.564C186.652 246.917 187.08 247.093 187.606 247.093C187.924 247.093 188.241 247.013 188.555 246.854C188.873 246.695 189.136 246.455 189.345 246.133C189.557 245.811 189.661 245.402 189.657 244.905ZM195.343 243.343V248.525H193.645V239.797H195.275V241.218H195.383C195.584 240.756 195.898 240.385 196.326 240.104C196.758 239.824 197.302 239.684 197.957 239.684C198.552 239.684 199.073 239.809 199.52 240.059C199.967 240.305 200.313 240.672 200.559 241.161C200.806 241.65 200.929 242.254 200.929 242.974V248.525H199.23V243.178C199.23 242.546 199.065 242.051 198.735 241.695C198.406 241.335 197.953 241.155 197.378 241.155C196.984 241.155 196.633 241.241 196.326 241.411C196.023 241.582 195.783 241.832 195.605 242.161C195.431 242.487 195.343 242.881 195.343 243.343ZM206.866 251.979C206.173 251.979 205.576 251.888 205.076 251.707C204.58 251.525 204.175 251.284 203.86 250.985C203.546 250.686 203.311 250.358 203.156 250.002L204.616 249.4C204.718 249.566 204.855 249.742 205.025 249.928C205.199 250.117 205.434 250.278 205.73 250.411C206.029 250.544 206.413 250.61 206.883 250.61C207.527 250.61 208.059 250.453 208.48 250.138C208.9 249.828 209.11 249.332 209.11 248.65V246.934H209.003C208.9 247.119 208.753 247.326 208.559 247.553C208.37 247.78 208.109 247.977 207.775 248.144C207.442 248.311 207.008 248.394 206.474 248.394C205.785 248.394 205.163 248.233 204.61 247.911C204.061 247.585 203.626 247.106 203.304 246.474C202.985 245.837 202.826 245.055 202.826 244.127C202.826 243.199 202.984 242.403 203.298 241.741C203.616 241.078 204.052 240.57 204.605 240.218C205.158 239.862 205.785 239.684 206.485 239.684C207.027 239.684 207.465 239.775 207.798 239.957C208.131 240.135 208.391 240.343 208.576 240.582C208.766 240.82 208.912 241.03 209.014 241.212H209.139V239.797H210.804V248.718C210.804 249.468 210.629 250.083 210.281 250.564C209.932 251.046 209.461 251.402 208.866 251.633C208.275 251.864 207.609 251.979 206.866 251.979ZM206.849 246.985C207.338 246.985 207.751 246.871 208.088 246.644C208.429 246.413 208.686 246.083 208.86 245.655C209.038 245.224 209.128 244.707 209.128 244.104C209.128 243.517 209.04 243 208.866 242.553C208.692 242.106 208.436 241.758 208.099 241.508C207.762 241.254 207.345 241.127 206.849 241.127C206.338 241.127 205.912 241.26 205.571 241.525C205.23 241.786 204.972 242.142 204.798 242.593C204.628 243.044 204.542 243.547 204.542 244.104C204.542 244.676 204.629 245.178 204.804 245.61C204.978 246.042 205.235 246.379 205.576 246.621C205.921 246.864 206.345 246.985 206.849 246.985Z"
        fill="#656C7B" />
    <rect x="68.5" y="338" width="524" height="113.049" rx="16" fill="#ECEEFF" />
    <path
        d="M116.293 407.927C117.111 408.222 117.501 408.082 119.096 408.082C121.111 405.651 122.826 403.537 124.841 401.106C124.039 401.12 123.247 400.837 122.515 400.508C120.804 403.263 118.636 405.685 116.293 407.927Z"
        fill="#212121" />
    <path
        d="M138.161 402.337C138.243 401.608 138.324 400.879 138.405 400.149C138.37 400.468 135.64 401.025 135.29 401.106C134.23 401.352 133.154 401.524 132.071 401.623C129.86 401.824 127.621 401.717 125.44 401.299C125.058 401.225 123.76 400.656 123.72 401.217C123.689 401.646 123.454 401.837 123.747 402.021C125.347 403.025 129.08 403.582 130.913 403.607C133.38 403.641 135.855 403.218 138.161 402.337Z"
        fill="#212121" />
    <path
        d="M148.708 373.685C145.292 369.548 140.37 367.504 135.044 366.862C129.718 366.219 124.054 366.564 119.533 369.452C125.827 367.008 133.059 366.619 139.298 369.201C145.536 371.783 150.561 377.552 151.463 384.243C151.682 385.871 151.642 387.618 150.809 389.034C151.093 388.551 152.624 388.833 153.018 388.352C153.324 387.979 153.21 386.671 153.221 386.204C153.258 384.674 153.103 383.141 152.775 381.647C152.105 378.6 150.695 376.092 148.708 373.685Z"
        fill="#212121" />
    <path
        d="M164.945 421.756C165.355 422.141 164.241 422.19 162.974 422.067C162.82 422.052 162.197 421.699 161.447 420.587C160.631 419.376 158.989 417.333 158.516 416.097C158.398 415.789 158.895 415.936 158.876 415.606C158.857 415.277 159.538 415.331 159.79 415.118C161.656 417.343 163.438 419.274 164.945 421.756Z"
        fill="#212121" />
    <path
        d="M160.266 417.117C155.46 418.541 150.963 418.6 146.617 416.692C142.272 414.783 138.813 411.176 137.695 406.563C137.318 405.009 136.926 403.251 137.362 401.713C138.199 406.271 140.68 410.814 144.602 413.283C146.764 414.644 149.333 415.395 151.824 415.879C154.381 416.375 157.392 415.89 159.889 415.254C159.9 416.006 160.053 416.754 160.337 417.45"
        fill="#212121" />
    <path
        d="M172.663 401.82C173.064 406.795 170.545 411.849 166.232 414.361C166.385 413.624 166.789 413.03 166.795 412.278C170.093 408.99 171.503 403.926 170.377 399.407C169.252 394.888 163.211 390.073 158.756 388.717C160.173 389.149 163.328 389.925 164.705 390.566C166.085 391.209 167.892 392.547 168.965 393.621C171.191 395.849 172.409 398.669 172.663 401.82Z"
        fill="#212121" />
    <path
        d="M164.794 422.154C164.514 422.154 164.241 422.035 164.047 421.816C163.33 420.943 162.798 420.146 162.234 419.303C161.965 418.899 161.69 418.487 161.389 418.06L161.178 417.762C160.854 417.301 160.365 416.605 160.029 416.345C159.859 416.212 159.38 416.317 159.03 416.395C158.908 416.422 158.79 416.447 158.68 416.467C157.736 416.645 156.732 416.753 155.617 416.797C153.595 416.868 151.569 416.659 149.606 416.178C143.422 414.678 138.584 410.077 137.569 404.729C137.308 403.363 137.304 401.946 137.558 400.518C138.283 396.308 141.208 392.328 145.191 390.133C146.892 389.198 148.797 388.548 150.855 388.2C154.737 387.534 158.853 387.974 162.445 389.441C166.17 390.942 168.992 393.378 170.605 396.488C172.926 400.929 172.543 406.28 169.632 410.12C169.046 410.889 168.383 411.606 167.657 412.257C166.731 415.906 166.206 418.761 165.777 421.305C165.769 421.614 165.512 421.96 165.132 422.095C165.022 422.134 164.907 422.154 164.794 422.154ZM164.335 421.033C164.325 421.072 164.318 421.111 164.316 421.152C164.323 421.112 164.329 421.072 164.335 421.033ZM159.759 414.811C160.157 414.811 160.57 414.899 160.932 415.183C161.442 415.576 161.963 416.319 162.383 416.915L162.588 417.205C162.901 417.65 163.182 418.072 163.458 418.485C163.806 419.006 164.142 419.508 164.51 420.011C164.927 417.602 165.447 414.954 166.287 411.673C166.324 411.528 166.404 411.398 166.517 411.3C167.236 410.675 167.889 409.978 168.459 409.229C171.028 405.843 171.358 401.108 169.299 397.167C167.85 394.373 165.289 392.174 161.892 390.805C158.546 389.439 154.717 389.03 151.102 389.652C151.101 389.652 151.101 389.652 151.1 389.652C149.205 389.972 147.455 390.568 145.901 391.423C142.301 393.407 139.659 396.989 139.008 400.771C138.785 402.026 138.788 403.263 139.015 404.453C139.925 409.244 144.321 413.381 149.955 414.748C151.787 415.197 153.677 415.391 155.563 415.326C156.602 415.285 157.534 415.185 158.413 415.019C158.512 415.001 158.612 414.979 158.715 414.957C159.008 414.892 159.376 414.811 159.759 414.811Z"
        fill="#212121" />
    <path
        d="M116.673 408.198C116.544 408.198 116.413 408.175 116.286 408.126C115.876 407.967 115.611 407.583 115.611 407.148C115.197 403.835 114.731 400.062 113.974 395.698C113.143 394.863 112.367 393.915 111.667 392.878C108.375 387.903 108.324 381.26 111.53 375.947C113.774 372.231 117.458 369.443 122.184 367.882C129.289 365.502 137.665 366.367 143.52 370.092C150.007 374.219 153.487 382.058 151.796 388.73C151.768 388.856 151.725 388.999 151.682 389.141C151.562 389.529 151.15 389.749 150.763 389.63C150.374 389.511 150.155 389.1 150.273 388.711C150.307 388.602 150.34 388.493 150.366 388.385C151.908 382.294 148.696 375.13 142.73 371.334C137.236 367.838 129.353 367.033 122.648 369.279C118.258 370.729 114.851 373.298 112.79 376.708C109.876 381.537 109.916 387.563 112.891 392.06C113.58 393.079 114.349 394.008 115.174 394.815C115.284 394.922 115.358 395.062 115.384 395.214C116.111 399.367 116.573 402.982 116.971 406.198C118.134 404.92 119.189 403.629 120.179 402.402C120.33 402.218 120.484 401.993 120.646 401.759C121.05 401.175 121.507 400.513 122.069 400.133C122.928 399.545 123.947 399.836 124.693 400.048C124.827 400.086 124.955 400.123 125.076 400.153C126.261 400.446 127.461 400.651 128.647 400.762C131.016 400.995 133.403 400.905 135.743 400.49C136.508 400.354 137.293 400.169 138.075 399.94C138.467 399.825 138.875 400.049 138.989 400.439C139.103 400.83 138.879 401.238 138.489 401.352C137.656 401.596 136.818 401.794 136 401.94C133.527 402.379 131.007 402.475 128.505 402.228C127.251 402.11 125.978 401.893 124.726 401.582C124.592 401.55 124.444 401.508 124.288 401.464C123.772 401.316 123.185 401.15 122.898 401.35C122.561 401.578 122.187 402.118 121.858 402.596C121.672 402.864 121.493 403.12 121.324 403.329C120.144 404.791 118.87 406.346 117.432 407.866C117.236 408.081 116.96 408.198 116.673 408.198ZM117.08 407.097C117.082 407.117 117.083 407.136 117.083 407.147C117.083 407.13 117.082 407.113 117.08 407.097Z"
        fill="#212121" />
    <path
        d="M137.007 394.417C136.705 394.417 136.422 394.23 136.315 393.93C135.187 390.804 133.849 387.483 132.555 384.272C131.457 381.55 130.329 378.751 129.321 376.049C127.15 379.853 125.59 382.742 123.947 385.783C122.663 388.159 121.345 390.599 119.672 393.59C119.475 393.944 119.026 394.071 118.671 393.873C118.316 393.675 118.19 393.226 118.388 392.871C120.056 389.887 121.371 387.454 122.651 385.083C124.49 381.679 126.227 378.464 128.829 373.945C128.972 373.698 129.235 373.551 129.533 373.58C129.818 373.605 130.063 373.793 130.16 374.063C131.288 377.19 132.626 380.51 133.92 383.721C135.219 386.945 136.563 390.278 137.699 393.431C137.837 393.813 137.639 394.235 137.256 394.373C137.173 394.403 137.089 394.417 137.007 394.417Z"
        fill="#212121" />
    <path
        d="M133.081 385.954C133.073 385.954 133.065 385.954 133.058 385.954L123.644 385.665C123.238 385.653 122.918 385.313 122.931 384.907C122.944 384.501 123.316 384.172 123.69 384.194L133.104 384.483C133.51 384.495 133.829 384.834 133.817 385.241C133.804 385.639 133.478 385.954 133.081 385.954Z"
        fill="#212121" />
    <path
        d="M160.434 398.39H147.066C146.66 398.39 146.33 398.06 146.33 397.654C146.33 397.247 146.66 396.918 147.066 396.918H160.434C160.84 396.918 161.17 397.247 161.17 397.654C161.17 398.06 160.84 398.39 160.434 398.39Z"
        fill="#212121" />
    <path
        d="M150.192 409.793C149.987 409.793 149.783 409.708 149.637 409.54C149.37 409.234 149.403 408.769 149.708 408.502C152.967 405.662 155.467 402.014 156.936 397.951C157.075 397.568 157.499 397.37 157.878 397.509C158.26 397.647 158.458 398.069 158.32 398.451C156.766 402.749 154.123 406.608 150.676 409.612C150.536 409.733 150.364 409.793 150.192 409.793Z"
        fill="#212121" />
    <path
        d="M158.718 409.588C158.688 409.588 158.658 409.587 158.628 409.583C156.567 409.332 154.541 408.124 152.922 406.184C151.522 404.505 150.588 402.544 149.686 400.646C149.51 400.279 149.666 399.84 150.033 399.665C150.401 399.491 150.84 399.647 151.014 400.014C151.878 401.828 152.772 403.705 154.053 405.241C155.431 406.892 157.119 407.916 158.806 408.122C159.209 408.171 159.497 408.538 159.447 408.942C159.402 409.315 159.085 409.588 158.718 409.588Z"
        fill="#212121" />
    <path
        d="M153.126 397.804C152.765 397.804 152.449 397.539 152.398 397.171C152.308 396.532 152.347 395.866 152.511 395.243C152.615 394.85 153.023 394.617 153.41 394.718C153.803 394.822 154.038 395.224 153.935 395.617C153.82 396.053 153.793 396.519 153.856 396.966C153.913 397.368 153.632 397.741 153.23 397.797C153.195 397.802 153.161 397.804 153.126 397.804Z"
        fill="#212121" />
    <path
        d="M159.89 415.991C160.15 415.991 162.817 419.46 164.118 421.195H165.419L166.72 413.064L169.322 410.137L171.273 405.908V399.078L168.021 393.549L161.516 389.971L155.011 388.345L145.579 390.622L139.399 396.801L138.098 406.559L143.302 413.389C146.121 414.582 151.823 416.967 152.084 416.967C152.409 416.967 159.564 415.991 159.89 415.991Z"
        fill="#212121" />
    <path
        d="M113.973 395.698C114.73 400.062 115.196 403.835 115.61 407.148C115.61 407.583 115.875 407.967 116.285 408.126C116.412 408.174 116.543 408.198 116.672 408.198C116.821 408.198 116.966 408.163 117.099 408.103C117.557 408.137 118.084 408.081 119.094 408.081C120.815 406.006 122.327 404.15 123.983 402.142C125.682 403.066 129.158 403.583 130.912 403.606C133.042 403.635 135.172 403.303 137.2 402.651C137.087 403.941 137.391 405.317 137.693 406.562C138.812 411.175 142.27 414.782 146.616 416.691C150.643 418.459 154.802 418.522 159.213 417.392C159.909 418.492 160.876 419.741 161.446 420.587C162.196 421.699 162.819 422.052 162.973 422.067C163.593 422.127 164.174 422.145 164.56 422.103C164.72 422.143 164.833 422.201 165.131 422.095C166.138 421.737 165.472 421.334 167.316 413.637C174.611 408.268 175.06 396.066 165.138 390.786C161.847 388.789 157.618 387.684 153.17 387.947C153.274 387.4 153.211 386.559 153.22 386.204C153.342 381.17 151.622 377.216 148.706 373.684C144.743 368.885 138.978 367.037 132.766 366.655C124.639 365.982 115.747 368.964 111.529 375.947C107.957 381.866 108.128 389.823 113.973 395.698ZM161.891 390.805C170.799 394.394 172.789 403.521 168.459 409.229C167.888 409.978 167.235 410.675 166.516 411.299C166.403 411.398 166.323 411.528 166.286 411.672C165.446 414.953 164.926 417.602 164.509 420.01C163.451 418.565 161.856 415.896 160.931 415.183C160.569 414.898 160.156 414.811 159.758 414.811C158.838 414.811 155.273 416.051 149.954 414.747C143.307 413.135 137.828 407.424 139.007 400.771C139.869 395.766 144.114 390.832 151.099 389.652C151.1 389.651 151.1 389.651 151.101 389.651C154.717 389.029 158.546 389.439 161.891 390.805ZM112.789 376.708C118.416 367.396 133.587 365.518 142.729 371.334C148.667 375.112 151.874 382.227 150.383 388.299C143.217 389.691 138.791 394.761 137.669 400.047C133.656 401.143 129.132 401.158 125.075 400.152C124.954 400.123 124.826 400.086 124.692 400.048C123.946 399.836 122.927 399.545 122.068 400.133C120.994 400.86 120.94 401.838 116.97 406.198C116.572 402.982 116.11 399.367 115.383 395.214C115.357 395.062 115.283 394.922 115.173 394.814C109.747 389.506 109.466 382.215 112.789 376.708Z"
        fill="#212121" />
    <path
        d="M118.67 393.873C119.025 394.071 119.474 393.944 119.671 393.59C121.344 390.599 122.661 388.159 123.946 385.783C123.965 385.747 123.984 385.712 124.003 385.677L133.057 385.954C133.064 385.955 133.072 385.955 133.08 385.955C133.129 385.955 133.172 385.936 133.219 385.927C134.298 388.614 135.378 391.337 136.313 393.93C136.421 394.23 136.703 394.417 137.005 394.417C137.088 394.417 137.172 394.403 137.255 394.373C137.638 394.235 137.835 393.813 137.697 393.431C136.562 390.278 135.218 386.945 133.918 383.721C132.624 380.51 131.286 377.19 130.158 374.063C130.061 373.793 129.817 373.605 129.531 373.58C129.233 373.551 128.971 373.698 128.828 373.945C126.226 378.464 124.489 381.679 122.65 385.083C121.369 387.454 120.054 389.887 118.387 392.871C118.188 393.226 118.315 393.675 118.67 393.873ZM129.32 376.049C130.328 378.751 131.456 381.55 132.553 384.272C132.58 384.337 132.606 384.403 132.632 384.468L124.787 384.228C126.141 381.725 127.521 379.201 129.32 376.049Z"
        fill="#212121" />
    <path
        d="M147.065 396.918C146.659 396.918 146.329 397.247 146.329 397.654C146.329 398.06 146.659 398.39 147.065 398.39H156.761C155.936 400.546 154.818 402.576 153.451 404.426C152.485 403.063 151.732 401.523 151.013 400.013C150.84 399.647 150.4 399.491 150.033 399.665C149.666 399.84 149.509 400.279 149.685 400.646C150.491 402.341 151.341 404.076 152.508 405.626C151.65 406.652 150.721 407.62 149.709 408.502C149.196 408.95 149.517 409.793 150.193 409.793C150.364 409.793 150.537 409.733 150.677 409.612C151.678 408.739 152.602 407.787 153.461 406.781C154.979 408.369 156.788 409.358 158.627 409.583C158.658 409.586 158.687 409.588 158.717 409.588C159.084 409.588 159.401 409.315 159.446 408.941C159.496 408.538 159.209 408.171 158.805 408.121C157.256 407.932 155.708 407.046 154.398 405.624C156.457 402.921 157.99 399.663 158.329 398.39H160.433C160.839 398.39 161.169 398.06 161.169 397.654C161.169 397.247 160.839 396.918 160.433 396.918H153.854C153.799 396.486 153.824 396.037 153.934 395.617C154.038 395.224 153.802 394.822 153.409 394.718C153.023 394.617 152.615 394.85 152.51 395.243C152.368 395.785 152.339 396.357 152.387 396.918H147.065Z"
        fill="white" />
    <path
        d="M220.318 374.616V376.604H214.047V374.616H220.318ZM215.595 372.002H218.166V382.243C218.166 382.589 218.218 382.854 218.322 383.039C218.431 383.219 218.573 383.342 218.748 383.408C218.923 383.475 219.118 383.508 219.331 383.508C219.492 383.508 219.638 383.496 219.771 383.472C219.908 383.448 220.012 383.427 220.083 383.408L220.517 385.418C220.379 385.466 220.183 385.518 219.927 385.574C219.676 385.631 219.369 385.664 219.004 385.674C218.36 385.693 217.78 385.596 217.264 385.383C216.748 385.165 216.338 384.829 216.035 384.374C215.737 383.92 215.59 383.351 215.595 382.67V372.002ZM222.468 385.525V374.616H225.039V385.525H222.468ZM223.761 373.067C223.353 373.067 223.003 372.932 222.71 372.663C222.416 372.388 222.269 372.059 222.269 371.675C222.269 371.287 222.416 370.958 222.71 370.688C223.003 370.413 223.353 370.276 223.761 370.276C224.173 370.276 224.523 370.413 224.812 370.688C225.105 370.958 225.252 371.287 225.252 371.675C225.252 372.059 225.105 372.388 224.812 372.663C224.523 372.932 224.173 373.067 223.761 373.067ZM232.512 385.738C231.419 385.738 230.474 385.511 229.679 385.056C228.888 384.597 228.279 383.948 227.853 383.11C227.427 382.267 227.214 381.275 227.214 380.134C227.214 379.012 227.427 378.027 227.853 377.18C228.284 376.327 228.886 375.664 229.657 375.191C230.429 374.713 231.336 374.474 232.378 374.474C233.05 374.474 233.684 374.582 234.281 374.8C234.882 375.013 235.413 375.345 235.872 375.795C236.336 376.244 236.7 376.817 236.966 377.513C237.231 378.205 237.363 379.029 237.363 379.985V380.773H228.422V379.04H234.899C234.894 378.548 234.788 378.11 234.579 377.726C234.371 377.338 234.08 377.033 233.706 376.81C233.336 376.588 232.905 376.476 232.413 376.476C231.887 376.476 231.426 376.604 231.028 376.86C230.63 377.111 230.32 377.442 230.098 377.854C229.88 378.261 229.769 378.709 229.764 379.197V380.709C229.764 381.344 229.88 381.888 230.112 382.343C230.344 382.793 230.668 383.138 231.085 383.38C231.502 383.617 231.989 383.735 232.548 383.735C232.922 383.735 233.261 383.683 233.564 383.579C233.867 383.47 234.129 383.311 234.352 383.103C234.574 382.895 234.743 382.636 234.856 382.329L237.257 382.599C237.105 383.233 236.816 383.787 236.39 384.261C235.969 384.729 235.429 385.094 234.771 385.354C234.113 385.61 233.36 385.738 232.512 385.738ZM233.748 373.309L232.306 371.491L230.865 373.309H228.613V373.209L231.305 370.141H233.315L236 373.209V373.309H233.748ZM246.491 380.937V374.616H249.063V385.525H246.57V383.586H246.456C246.21 384.197 245.805 384.696 245.241 385.084C244.683 385.473 243.994 385.667 243.175 385.667C242.46 385.667 241.828 385.508 241.278 385.191C240.734 384.869 240.308 384.403 240 383.792C239.692 383.176 239.538 382.433 239.538 381.562V374.616H242.109V381.164C242.109 381.855 242.299 382.404 242.678 382.812C243.056 383.219 243.554 383.422 244.169 383.422C244.548 383.422 244.915 383.33 245.27 383.145C245.625 382.961 245.916 382.686 246.143 382.322C246.375 381.952 246.491 381.491 246.491 380.937ZM260.716 385.716C259.859 385.716 259.092 385.496 258.414 385.056C257.737 384.616 257.202 383.976 256.809 383.138C256.416 382.3 256.22 381.282 256.22 380.084C256.22 378.872 256.419 377.85 256.816 377.016C257.219 376.178 257.761 375.546 258.443 375.12C259.125 374.689 259.885 374.474 260.723 374.474C261.362 374.474 261.887 374.582 262.299 374.8C262.711 375.013 263.038 375.271 263.279 375.574C263.521 375.873 263.708 376.154 263.841 376.42H263.947V370.979H266.525V385.525H263.997V383.806H263.841C263.708 384.071 263.516 384.353 263.265 384.651C263.014 384.945 262.683 385.196 262.271 385.404C261.859 385.612 261.341 385.716 260.716 385.716ZM261.433 383.607C261.977 383.607 262.441 383.46 262.825 383.167C263.208 382.868 263.5 382.454 263.699 381.924C263.897 381.394 263.997 380.776 263.997 380.07C263.997 379.365 263.897 378.752 263.699 378.231C263.504 377.71 263.216 377.305 262.832 377.016C262.453 376.727 261.987 376.583 261.433 376.583C260.86 376.583 260.382 376.732 259.998 377.03C259.615 377.329 259.326 377.741 259.132 378.266C258.938 378.792 258.841 379.393 258.841 380.07C258.841 380.752 258.938 381.36 259.132 381.895C259.331 382.426 259.622 382.845 260.005 383.153C260.394 383.456 260.869 383.607 261.433 383.607ZM261.064 373.799V372.172H267.868V373.799H261.064ZM274.094 385.738C273.001 385.738 272.056 385.511 271.261 385.056C270.47 384.597 269.862 383.948 269.435 383.11C269.009 382.267 268.796 381.275 268.796 380.134C268.796 379.012 269.009 378.027 269.435 377.18C269.866 376.327 270.468 375.664 271.239 375.191C272.011 374.713 272.918 374.474 273.96 374.474C274.632 374.474 275.266 374.582 275.863 374.8C276.464 375.013 276.995 375.345 277.454 375.795C277.918 376.244 278.282 376.817 278.548 377.513C278.813 378.205 278.945 379.029 278.945 379.985V380.773H270.004V379.04H276.481C276.476 378.548 276.37 378.11 276.161 377.726C275.953 377.338 275.662 377.033 275.288 376.81C274.918 376.588 274.487 376.476 273.995 376.476C273.469 376.476 273.008 376.604 272.61 376.86C272.212 377.111 271.902 377.442 271.68 377.854C271.462 378.261 271.351 378.709 271.346 379.197V380.709C271.346 381.344 271.462 381.888 271.694 382.343C271.926 382.793 272.25 383.138 272.667 383.38C273.084 383.617 273.571 383.735 274.13 383.735C274.504 383.735 274.843 383.683 275.146 383.579C275.449 383.47 275.711 383.311 275.934 383.103C276.157 382.895 276.325 382.636 276.438 382.329L278.839 382.599C278.687 383.233 278.398 383.787 277.972 384.261C277.551 384.729 277.011 385.094 276.353 385.354C275.695 385.61 274.942 385.738 274.094 385.738ZM274.677 371.072L277.56 373.408H275.423L273.889 372.101L272.333 373.408H270.21L273.065 371.072H274.677ZM269.379 369.36L270.948 371.988H269.343L267.127 369.36H269.379Z"
        fill="#1E2238" />
    <path
        d="M216.39 411.343V416.525H214.691V407.797H216.322V409.218H216.43C216.631 408.756 216.945 408.385 217.373 408.104C217.805 407.824 218.349 407.684 219.004 407.684C219.599 407.684 220.119 407.809 220.566 408.059C221.013 408.305 221.36 408.672 221.606 409.161C221.852 409.65 221.976 410.254 221.976 410.974V416.525H220.277V411.178C220.277 410.546 220.112 410.051 219.782 409.695C219.453 409.335 219 409.155 218.424 409.155C218.03 409.155 217.68 409.241 217.373 409.411C217.07 409.582 216.83 409.832 216.652 410.161C216.477 410.487 216.39 410.881 216.39 411.343ZM227.93 416.701C227.112 416.701 226.398 416.513 225.788 416.138C225.178 415.763 224.705 415.239 224.368 414.564C224.03 413.89 223.862 413.102 223.862 412.201C223.862 411.296 224.03 410.504 224.368 409.826C224.705 409.148 225.178 408.621 225.788 408.246C226.398 407.871 227.112 407.684 227.93 407.684C228.748 407.684 229.462 407.871 230.072 408.246C230.682 408.621 231.155 409.148 231.493 409.826C231.83 410.504 231.998 411.296 231.998 412.201C231.998 413.102 231.83 413.89 231.493 414.564C231.155 415.239 230.682 415.763 230.072 416.138C229.462 416.513 228.748 416.701 227.93 416.701ZM227.936 415.275C228.466 415.275 228.905 415.135 229.254 414.854C229.602 414.574 229.86 414.201 230.027 413.735C230.197 413.269 230.282 412.756 230.282 412.195C230.282 411.638 230.197 411.127 230.027 410.661C229.86 410.191 229.602 409.814 229.254 409.53C228.905 409.246 228.466 409.104 227.936 409.104C227.402 409.104 226.958 409.246 226.606 409.53C226.258 409.814 225.998 410.191 225.828 410.661C225.661 411.127 225.578 411.638 225.578 412.195C225.578 412.756 225.661 413.269 225.828 413.735C225.998 414.201 226.258 414.574 226.606 414.854C226.958 415.135 227.402 415.275 227.936 415.275ZM229.095 406.752L227.93 405.229L226.76 406.752H225.226V406.667L227.22 404.258H228.635L230.635 406.667V406.752H229.095ZM227.93 419.536C227.638 419.536 227.386 419.438 227.174 419.241C226.962 419.044 226.856 418.805 226.856 418.525C226.856 418.244 226.962 418.006 227.174 417.809C227.386 417.612 227.638 417.513 227.93 417.513C228.226 417.513 228.477 417.612 228.686 417.809C228.898 418.006 229.004 418.244 229.004 418.525C229.004 418.805 228.898 419.044 228.686 419.241C228.477 419.438 228.226 419.536 227.93 419.536ZM233.895 416.525V407.797H235.593V416.525H233.895ZM234.753 406.451C234.457 406.451 234.203 406.352 233.991 406.155C233.783 405.955 233.679 405.716 233.679 405.439C233.679 405.159 233.783 404.921 233.991 404.724C234.203 404.523 234.457 404.422 234.753 404.422C235.048 404.422 235.3 404.523 235.508 404.724C235.72 404.921 235.826 405.159 235.826 405.439C235.826 405.716 235.72 405.955 235.508 406.155C235.3 406.352 235.048 406.451 234.753 406.451ZM245.38 416.695C244.676 416.695 244.047 416.515 243.494 416.155C242.945 415.792 242.513 415.275 242.199 414.604C241.888 413.93 241.733 413.121 241.733 412.178C241.733 411.235 241.89 410.428 242.204 409.758C242.522 409.087 242.958 408.574 243.511 408.218C244.064 407.862 244.691 407.684 245.392 407.684C245.933 407.684 246.369 407.775 246.699 407.957C247.032 408.135 247.289 408.343 247.471 408.582C247.657 408.82 247.801 409.03 247.903 409.212H248.005V404.888H249.704V416.525H248.045V415.167H247.903C247.801 415.352 247.653 415.564 247.46 415.803C247.27 416.042 247.009 416.25 246.676 416.428C246.342 416.606 245.911 416.695 245.38 416.695ZM245.755 415.246C246.244 415.246 246.657 415.118 246.994 414.86C247.335 414.599 247.592 414.237 247.767 413.775C247.945 413.313 248.034 412.775 248.034 412.161C248.034 411.555 247.947 411.025 247.772 410.57C247.598 410.116 247.342 409.761 247.005 409.508C246.668 409.254 246.252 409.127 245.755 409.127C245.244 409.127 244.818 409.26 244.477 409.525C244.136 409.79 243.878 410.152 243.704 410.61C243.534 411.068 243.449 411.585 243.449 412.161C243.449 412.744 243.536 413.269 243.71 413.735C243.884 414.201 244.142 414.57 244.483 414.843C244.827 415.112 245.252 415.246 245.755 415.246ZM257.657 412.905V407.797H259.362V416.525H257.691V415.013H257.601C257.4 415.479 257.078 415.868 256.635 416.178C256.195 416.485 255.648 416.638 254.993 416.638C254.432 416.638 253.936 416.515 253.504 416.269C253.076 416.019 252.739 415.65 252.493 415.161C252.25 414.672 252.129 414.068 252.129 413.349V407.797H253.828V413.144C253.828 413.739 253.993 414.212 254.322 414.564C254.652 414.917 255.08 415.093 255.606 415.093C255.924 415.093 256.241 415.013 256.555 414.854C256.873 414.695 257.136 414.455 257.345 414.133C257.557 413.811 257.661 413.402 257.657 412.905ZM263.343 411.343V416.525H261.645V407.797H263.275V409.218H263.383C263.584 408.756 263.898 408.385 264.326 408.104C264.758 407.824 265.302 407.684 265.957 407.684C266.552 407.684 267.073 407.809 267.52 408.059C267.967 408.305 268.313 408.672 268.559 409.161C268.806 409.65 268.929 410.254 268.929 410.974V416.525H267.23V411.178C267.23 410.546 267.065 410.051 266.735 409.695C266.406 409.335 265.953 409.155 265.378 409.155C264.984 409.155 264.633 409.241 264.326 409.411C264.023 409.582 263.783 409.832 263.605 410.161C263.431 410.487 263.343 410.881 263.343 411.343ZM274.866 419.979C274.173 419.979 273.576 419.888 273.076 419.707C272.58 419.525 272.175 419.284 271.86 418.985C271.546 418.686 271.311 418.358 271.156 418.002L272.616 417.4C272.718 417.566 272.855 417.743 273.025 417.928C273.199 418.118 273.434 418.279 273.73 418.411C274.029 418.544 274.413 418.61 274.883 418.61C275.527 418.61 276.059 418.453 276.48 418.138C276.9 417.828 277.11 417.332 277.11 416.65V414.934H277.003C276.9 415.119 276.753 415.326 276.559 415.553C276.37 415.78 276.109 415.977 275.775 416.144C275.442 416.311 275.008 416.394 274.474 416.394C273.785 416.394 273.163 416.233 272.61 415.911C272.061 415.585 271.626 415.106 271.304 414.474C270.985 413.837 270.826 413.055 270.826 412.127C270.826 411.199 270.984 410.404 271.298 409.741C271.616 409.078 272.052 408.57 272.605 408.218C273.158 407.862 273.785 407.684 274.485 407.684C275.027 407.684 275.465 407.775 275.798 407.957C276.131 408.135 276.391 408.343 276.576 408.582C276.766 408.82 276.912 409.03 277.014 409.212H277.139V407.797H278.804V416.718C278.804 417.468 278.629 418.083 278.281 418.564C277.932 419.046 277.461 419.402 276.866 419.633C276.275 419.864 275.609 419.979 274.866 419.979ZM274.849 414.985C275.338 414.985 275.751 414.871 276.088 414.644C276.429 414.413 276.686 414.083 276.86 413.655C277.038 413.224 277.128 412.707 277.128 412.104C277.128 411.517 277.04 411 276.866 410.553C276.692 410.106 276.436 409.758 276.099 409.508C275.762 409.254 275.345 409.127 274.849 409.127C274.338 409.127 273.912 409.26 273.571 409.525C273.23 409.786 272.972 410.142 272.798 410.593C272.628 411.044 272.542 411.547 272.542 412.104C272.542 412.676 272.629 413.178 272.804 413.61C272.978 414.042 273.235 414.379 273.576 414.621C273.921 414.864 274.345 414.985 274.849 414.985Z"
        fill="#656C7B" />
    <rect x="152.5" y="506" width="524" height="113.049" rx="16" fill="#ECEEFF" />
    <path
        d="M226.326 568.704L231.855 568.054L230.554 564.151L226.976 557.971L226.326 559.923L224.049 556.02L221.772 553.743L218.195 551.141L216.568 552.117L214.292 549.84L211.364 547.563L208.762 546.262L208.437 547.563L207.461 546.913L204.859 545.612L201.607 544.311H197.379L194.126 545.612L193.801 547.563L197.379 551.466L203.233 557.321L205.835 557.646L210.063 557.971L207.787 558.947V559.923L210.063 561.549L212.991 563.5L221.447 564.801L223.073 565.452L219.17 567.078L220.797 567.729L226.326 568.704Z"
        fill="#212121" />
    <path
        d="M225.589 554.201C226.623 554.242 227.69 554.899 228.836 555.276C230.317 555.765 232.141 555.616 232.99 554.291C233.071 554.164 233.211 553.909 233.216 553.895C233.44 553.803 234.02 554.441 234.571 554.705C236.659 555.699 238.371 553.225 242.072 554.57C242.451 554.707 242.874 554.512 243.012 554.131C243.15 553.75 242.954 553.33 242.573 553.192C240.712 552.517 238.91 552.579 237.056 553.174C235.083 553.801 235.302 553.364 234.294 552.742C233.622 552.331 232.88 552.321 232.358 552.71C232.058 552.935 231.902 553.242 231.755 553.501C231.321 554.178 230.176 554.176 229.295 553.885C228.155 553.506 227.021 552.79 225.646 552.736C225.278 552.699 224.901 553.034 224.886 553.44C224.869 553.845 225.184 554.185 225.589 554.201Z"
        fill="#212121" />
    <path
        d="M240.993 570.124C240.155 569.82 239.668 569.904 239.046 570.563C238.938 570.677 238.828 570.853 238.427 570.773C238.264 570.74 238.183 570.674 238.172 570.653C237.982 570.303 237.539 570.152 237.184 570.338C236.369 570.759 236.869 571.931 238.096 572.202C238.695 572.335 239.365 572.22 239.817 571.854C239.856 571.823 240.272 571.431 240.225 571.421C240.567 571.435 241.109 572.102 243.718 571.377C244.108 571.268 244.337 570.864 244.228 570.474C244.119 570.084 243.716 569.854 243.325 569.964C241.368 570.51 241.142 570.131 240.993 570.124Z"
        fill="#212121" />
    <path
        d="M243.083 576.852C242.219 577.113 241.259 576.923 240.239 576.722C236.473 575.986 234.81 576.79 231.102 577.374C228.058 577.859 225.781 577.439 224.344 576.132C224.045 575.86 223.58 575.883 223.308 576.181C223.035 576.481 223.058 576.944 223.357 577.217C224.687 578.426 226.519 579.033 228.821 579.033C232.326 579.033 235.581 577.541 238.806 577.96C240.275 578.151 241.873 578.746 243.505 578.257C243.893 578.14 244.113 577.731 243.997 577.344C243.88 576.956 243.475 576.736 243.083 576.852Z"
        fill="#212121" />
    <path
        d="M196.675 552.865C198.481 554.752 200.343 556.679 202.703 557.798C204.224 558.519 206.01 558.828 207.646 558.54C207.436 558.739 207.241 558.954 207.077 559.194C206.957 559.372 206.933 559.582 206.98 559.777C206.751 561.341 211.928 563.844 213.695 564.556C214.579 566.994 215.025 568.168 215.534 569.704C218.592 578.92 216.694 582.659 216.624 583.372C214.012 583.483 211.397 583.625 208.783 583.816C208.332 583.85 208.013 584.281 208.126 584.727C208.689 586.946 209.657 588.657 210.954 589.811C210.957 589.815 210.961 589.82 210.964 589.824C210.961 589.82 210.958 589.816 210.955 589.813C211.744 590.515 212.426 590.863 213.177 591.13C212.117 590.831 211.505 590.401 210.964 589.824C211.637 590.578 212.407 591.233 213.2 591.725C215.458 593.126 217.78 593.117 220.435 593.209C224.143 593.338 228.252 593.306 231.963 593.244C237.781 593.146 243.599 593.988 248.647 590.89C248.954 590.762 249.253 590.593 249.544 590.39C251.062 589.84 252.138 588.461 252.871 587.009C257.03 578.77 252.018 568.922 249.811 561.841C248.587 557.917 247.793 553.732 248.509 549.701C251.076 549.175 252.523 548.79 255.016 548.28C254.897 548.662 255.105 549.069 255.486 549.194C255.562 549.219 255.639 549.23 255.714 549.23C256.022 549.23 256.31 549.034 256.411 548.725C256.96 547.044 256.727 545.083 255.804 543.607C254.336 541.255 251.129 540.962 249.114 540.363C241.62 538.107 235.071 541.658 225.605 540.016C221.993 539.381 217.951 540.604 215.07 543.203C213.77 544.366 212.79 545.774 212.109 547.371C211.058 546.68 209.947 546.08 208.789 545.581C208.359 545.397 207.868 545.656 207.78 546.112L207.722 546.405C204.818 544.266 201.184 543.218 197.574 543.521C193.396 543.866 192.228 546.698 193.857 549.083C194.466 550.548 195.505 551.644 196.675 552.865ZM194.82 550.227C195.264 550.672 195.226 550.614 198.751 553.849C197.817 553.088 195.629 551.133 194.82 550.227ZM209.791 585.214C221.365 584.411 232.941 584.4 244.241 585.168C243.32 586.819 243.607 588.954 244.636 590.096C235.274 591.17 228.996 590.894 220.475 590.649C218.088 590.57 215.62 590.488 213.516 589.7C211.798 589.057 210.547 587.549 209.791 585.214ZM255.238 546.737C253.033 547.171 251.588 547.547 248.864 548.128C249.21 546.974 249.733 545.87 250.586 545.031C251.437 544.192 252.285 544.125 253.333 543.768C253.54 543.698 253.788 543.748 253.991 543.732C254.827 544.487 255.216 545.629 255.238 546.737ZM216.05 544.293C218.607 541.988 222.173 540.901 225.353 541.46C230.07 542.28 233.903 541.877 237.612 541.485C246.216 540.582 246.18 541.127 250.814 542.306C248.146 543.799 246.437 546.942 245.951 551.361C244.974 560.208 250.39 567.815 251.888 575.965C252.729 580.541 252.109 584.792 250.189 587.629C249.493 588.657 248.743 589.316 247.959 589.6C247.435 589.608 246.913 589.447 246.539 589.075C245.88 588.418 245.671 587.194 246.182 586.382C246.465 585.933 246.651 585.121 246.555 584.539C246.64 583.97 246.073 583.524 245.525 583.781C236.535 583.125 227.363 582.966 218.151 583.303C219.822 577.153 217.544 570.798 215.45 565.091C217.845 565.676 219.576 565.578 221.327 565.656C220.497 566.021 219.492 566.326 219.157 566.226C218.792 566.058 218.354 566.216 218.184 566.584C218.014 566.952 218.175 567.388 218.542 567.557L218.543 567.558C223.928 570.041 229.946 569.598 231.236 568.722C233.724 571.025 233.7 571.315 234.221 571.315C234.878 571.315 235.202 570.511 234.73 570.054C231.792 567.249 232.262 567.637 232.018 567.475C232.098 566.917 231.945 566.383 231.857 566.08C230.942 562.968 229.359 560.009 227.278 557.522C226.897 557.067 226.173 557.232 226.012 557.787C224.112 554.673 221.363 552.12 218.09 550.465C217.899 550.368 217.672 550.36 217.475 550.443C217.019 550.636 217.135 550.962 216.768 551.502C215.746 550.291 214.59 549.202 213.333 548.245C213.93 546.72 214.83 545.385 216.05 544.293ZM194.632 546.769C194.723 546.266 195.118 545.783 195.688 545.476C197.734 544.378 203.634 544.705 207.724 548.287C208.148 548.658 208.816 548.431 208.925 547.877L209.038 547.307C210.057 547.803 211.031 548.385 211.95 549.042C211.957 549.048 211.967 549.052 211.975 549.058C213.544 550.183 214.952 551.53 216.142 553.059C216.389 553.375 216.846 553.436 217.169 553.189C217.542 552.901 217.861 552.539 218.103 552.132C221.487 554.027 224.206 556.984 225.805 560.53C225.923 560.792 226.185 560.961 226.473 560.961C227.006 560.961 227.181 560.52 227.335 560.011C228.71 561.986 229.774 564.195 230.45 566.493C230.722 567.419 230.627 567.602 229.619 567.75C226.949 568.134 224.166 567.915 221.569 567.137C222.546 566.737 223.416 566.199 223.694 565.811C223.88 565.551 223.877 565.201 223.686 564.945C222.909 563.907 220.189 564.262 219.275 564.124C215.516 563.549 211.814 561.991 208.733 559.525C209.204 559.116 209.825 558.864 210.44 558.853C211.133 558.84 211.418 557.959 210.875 557.54C209.664 556.602 208.202 556.613 206.794 556.628C202.847 556.652 203.926 556.304 196.322 549.637C195.384 548.778 194.451 547.767 194.632 546.769Z"
        fill="#212121" />
    <path
        d="M212.098 540.235L209.088 538.683C208.725 538.496 208.286 538.64 208.1 538.998C207.915 539.358 208.056 539.8 208.416 539.987C211.496 541.543 211.444 541.62 211.761 541.62C212.53 541.62 212.778 540.586 212.098 540.235Z"
        fill="#212121" />
    <path
        d="M214.464 539.56C214.863 539.495 215.135 539.119 215.07 538.719C214.824 537.194 214.36 535.716 213.691 534.324C213.516 533.959 213.08 533.802 212.713 533.98C212.348 534.155 212.194 534.593 212.37 534.958C212.977 536.223 213.399 537.567 213.623 538.954C213.689 539.362 214.075 539.625 214.464 539.56Z"
        fill="#212121" />
    <path
        d="M217.263 533.918L216.934 537.455C216.897 537.858 217.193 538.215 217.596 538.253C218.015 538.288 218.358 537.982 218.395 537.59L218.724 534.054C218.761 533.651 218.465 533.294 218.061 533.255C217.662 533.219 217.301 533.515 217.263 533.918Z"
        fill="#212121" />
    <path
        d="M304.318 542.616V544.604H298.047V542.616H304.318ZM299.595 540.002H302.166V550.243C302.166 550.589 302.218 550.854 302.322 551.039C302.431 551.219 302.573 551.342 302.748 551.408C302.923 551.475 303.118 551.508 303.331 551.508C303.492 551.508 303.638 551.496 303.771 551.472C303.908 551.448 304.012 551.427 304.083 551.408L304.517 553.418C304.379 553.466 304.183 553.518 303.927 553.574C303.676 553.631 303.369 553.664 303.004 553.674C302.36 553.693 301.78 553.596 301.264 553.383C300.748 553.165 300.338 552.829 300.035 552.374C299.737 551.92 299.59 551.351 299.595 550.67V540.002ZM306.468 553.525V542.616H309.039V553.525H306.468ZM307.761 541.067C307.353 541.067 307.003 540.932 306.71 540.663C306.416 540.388 306.269 540.059 306.269 539.675C306.269 539.287 306.416 538.958 306.71 538.688C307.003 538.413 307.353 538.276 307.761 538.276C308.173 538.276 308.523 538.413 308.812 538.688C309.105 538.958 309.252 539.287 309.252 539.675C309.252 540.059 309.105 540.388 308.812 540.663C308.523 540.932 308.173 541.067 307.761 541.067ZM316.512 553.738C315.419 553.738 314.474 553.511 313.679 553.056C312.888 552.597 312.279 551.948 311.853 551.11C311.427 550.267 311.214 549.275 311.214 548.134C311.214 547.012 311.427 546.027 311.853 545.18C312.284 544.327 312.886 543.664 313.657 543.191C314.429 542.713 315.336 542.474 316.378 542.474C317.05 542.474 317.684 542.582 318.281 542.8C318.882 543.013 319.413 543.345 319.872 543.795C320.336 544.244 320.7 544.817 320.966 545.513C321.231 546.205 321.363 547.029 321.363 547.985V548.773H312.422V547.04H318.899C318.894 546.548 318.788 546.11 318.579 545.726C318.371 545.338 318.08 545.033 317.706 544.81C317.336 544.588 316.905 544.476 316.413 544.476C315.887 544.476 315.426 544.604 315.028 544.86C314.63 545.111 314.32 545.442 314.098 545.854C313.88 546.261 313.769 546.709 313.764 547.197V548.709C313.764 549.344 313.88 549.888 314.112 550.343C314.344 550.793 314.668 551.138 315.085 551.38C315.502 551.617 315.989 551.735 316.548 551.735C316.922 551.735 317.261 551.683 317.564 551.579C317.867 551.47 318.129 551.311 318.352 551.103C318.574 550.895 318.743 550.636 318.856 550.329L321.257 550.599C321.105 551.233 320.816 551.787 320.39 552.261C319.969 552.729 319.429 553.094 318.771 553.354C318.113 553.61 317.36 553.738 316.512 553.738ZM317.748 541.309L316.306 539.491L314.865 541.309H312.613V541.209L315.305 538.141H317.315L320 541.209V541.309H317.748ZM330.491 548.937V542.616H333.063V553.525H330.57V551.586H330.456C330.21 552.197 329.805 552.696 329.241 553.084C328.683 553.473 327.994 553.667 327.175 553.667C326.46 553.667 325.828 553.508 325.278 553.191C324.734 552.869 324.308 552.403 324 551.792C323.692 551.176 323.538 550.433 323.538 549.562V542.616H326.109V549.164C326.109 549.855 326.299 550.404 326.678 550.812C327.056 551.219 327.554 551.422 328.169 551.422C328.548 551.422 328.915 551.33 329.27 551.145C329.625 550.961 329.916 550.686 330.143 550.322C330.375 549.952 330.491 549.491 330.491 548.937ZM344.716 553.716C343.859 553.716 343.092 553.496 342.414 553.056C341.737 552.616 341.202 551.976 340.809 551.138C340.416 550.3 340.22 549.282 340.22 548.084C340.22 546.872 340.419 545.85 340.816 545.016C341.219 544.178 341.761 543.546 342.443 543.12C343.125 542.689 343.885 542.474 344.723 542.474C345.362 542.474 345.887 542.582 346.299 542.8C346.711 543.013 347.038 543.271 347.279 543.574C347.521 543.873 347.708 544.154 347.841 544.42H347.947V538.979H350.525V553.525H347.997V551.806H347.841C347.708 552.071 347.516 552.353 347.265 552.651C347.014 552.945 346.683 553.196 346.271 553.404C345.859 553.612 345.341 553.716 344.716 553.716ZM345.433 551.607C345.977 551.607 346.441 551.46 346.825 551.167C347.208 550.868 347.5 550.454 347.699 549.924C347.897 549.394 347.997 548.776 347.997 548.07C347.997 547.365 347.897 546.752 347.699 546.231C347.504 545.71 347.216 545.305 346.832 545.016C346.453 544.727 345.987 544.583 345.433 544.583C344.86 544.583 344.382 544.732 343.998 545.03C343.615 545.329 343.326 545.741 343.132 546.266C342.938 546.792 342.841 547.393 342.841 548.07C342.841 548.752 342.938 549.36 343.132 549.895C343.331 550.426 343.622 550.845 344.005 551.153C344.394 551.456 344.869 551.607 345.433 551.607ZM345.064 541.799V540.172H351.868V541.799H345.064ZM358.094 553.738C357.001 553.738 356.056 553.511 355.261 553.056C354.47 552.597 353.862 551.948 353.435 551.11C353.009 550.267 352.796 549.275 352.796 548.134C352.796 547.012 353.009 546.027 353.435 545.18C353.866 544.327 354.468 543.664 355.239 543.191C356.011 542.713 356.918 542.474 357.96 542.474C358.632 542.474 359.266 542.582 359.863 542.8C360.464 543.013 360.995 543.345 361.454 543.795C361.918 544.244 362.282 544.817 362.548 545.513C362.813 546.205 362.945 547.029 362.945 547.985V548.773H354.004V547.04H360.481C360.476 546.548 360.37 546.11 360.161 545.726C359.953 545.338 359.662 545.033 359.288 544.81C358.918 544.588 358.487 544.476 357.995 544.476C357.469 544.476 357.008 544.604 356.61 544.86C356.212 545.111 355.902 545.442 355.68 545.854C355.462 546.261 355.351 546.709 355.346 547.197V548.709C355.346 549.344 355.462 549.888 355.694 550.343C355.926 550.793 356.25 551.138 356.667 551.38C357.084 551.617 357.571 551.735 358.13 551.735C358.504 551.735 358.843 551.683 359.146 551.579C359.449 551.47 359.711 551.311 359.934 551.103C360.157 550.895 360.325 550.636 360.438 550.329L362.839 550.599C362.687 551.233 362.398 551.787 361.972 552.261C361.551 552.729 361.011 553.094 360.353 553.354C359.695 553.61 358.942 553.738 358.094 553.738ZM358.677 539.072L361.56 541.408H359.423L357.889 540.101L356.333 541.408H354.21L357.065 539.072H358.677ZM353.379 537.36L354.948 539.988H353.343L351.127 537.36H353.379Z"
        fill="#1E2238" />
    <path
        d="M300.39 579.343V584.525H298.691V575.797H300.322V577.218H300.43C300.631 576.756 300.945 576.385 301.373 576.104C301.805 575.824 302.349 575.684 303.004 575.684C303.599 575.684 304.119 575.809 304.566 576.059C305.013 576.305 305.36 576.672 305.606 577.161C305.852 577.65 305.976 578.254 305.976 578.974V584.525H304.277V579.178C304.277 578.546 304.112 578.051 303.782 577.695C303.453 577.335 303 577.155 302.424 577.155C302.03 577.155 301.68 577.241 301.373 577.411C301.07 577.582 300.83 577.832 300.652 578.161C300.477 578.487 300.39 578.881 300.39 579.343ZM311.93 584.701C311.112 584.701 310.398 584.513 309.788 584.138C309.178 583.763 308.705 583.239 308.368 582.564C308.03 581.89 307.862 581.102 307.862 580.201C307.862 579.296 308.03 578.504 308.368 577.826C308.705 577.148 309.178 576.621 309.788 576.246C310.398 575.871 311.112 575.684 311.93 575.684C312.748 575.684 313.462 575.871 314.072 576.246C314.682 576.621 315.155 577.148 315.493 577.826C315.83 578.504 315.998 579.296 315.998 580.201C315.998 581.102 315.83 581.89 315.493 582.564C315.155 583.239 314.682 583.763 314.072 584.138C313.462 584.513 312.748 584.701 311.93 584.701ZM311.936 583.275C312.466 583.275 312.905 583.135 313.254 582.854C313.602 582.574 313.86 582.201 314.027 581.735C314.197 581.269 314.282 580.756 314.282 580.195C314.282 579.638 314.197 579.127 314.027 578.661C313.86 578.191 313.602 577.814 313.254 577.53C312.905 577.246 312.466 577.104 311.936 577.104C311.402 577.104 310.958 577.246 310.606 577.53C310.258 577.814 309.998 578.191 309.828 578.661C309.661 579.127 309.578 579.638 309.578 580.195C309.578 580.756 309.661 581.269 309.828 581.735C309.998 582.201 310.258 582.574 310.606 582.854C310.958 583.135 311.402 583.275 311.936 583.275ZM313.095 574.752L311.93 573.229L310.76 574.752H309.226V574.667L311.22 572.258H312.635L314.635 574.667V574.752H313.095ZM311.93 587.536C311.638 587.536 311.386 587.438 311.174 587.241C310.962 587.044 310.856 586.805 310.856 586.525C310.856 586.244 310.962 586.006 311.174 585.809C311.386 585.612 311.638 585.513 311.93 585.513C312.226 585.513 312.477 585.612 312.686 585.809C312.898 586.006 313.004 586.244 313.004 586.525C313.004 586.805 312.898 587.044 312.686 587.241C312.477 587.438 312.226 587.536 311.93 587.536ZM317.895 584.525V575.797H319.593V584.525H317.895ZM318.753 574.451C318.457 574.451 318.203 574.352 317.991 574.155C317.783 573.955 317.679 573.716 317.679 573.439C317.679 573.159 317.783 572.921 317.991 572.724C318.203 572.523 318.457 572.422 318.753 572.422C319.048 572.422 319.3 572.523 319.508 572.724C319.72 572.921 319.826 573.159 319.826 573.439C319.826 573.716 319.72 573.955 319.508 574.155C319.3 574.352 319.048 574.451 318.753 574.451ZM329.38 584.695C328.676 584.695 328.047 584.515 327.494 584.155C326.945 583.792 326.513 583.275 326.199 582.604C325.888 581.93 325.733 581.121 325.733 580.178C325.733 579.235 325.89 578.428 326.204 577.758C326.522 577.087 326.958 576.574 327.511 576.218C328.064 575.862 328.691 575.684 329.392 575.684C329.933 575.684 330.369 575.775 330.699 575.957C331.032 576.135 331.289 576.343 331.471 576.582C331.657 576.82 331.801 577.03 331.903 577.212H332.005V572.888H333.704V584.525H332.045V583.167H331.903C331.801 583.352 331.653 583.564 331.46 583.803C331.27 584.042 331.009 584.25 330.676 584.428C330.342 584.606 329.911 584.695 329.38 584.695ZM329.755 583.246C330.244 583.246 330.657 583.118 330.994 582.86C331.335 582.599 331.592 582.237 331.767 581.775C331.945 581.313 332.034 580.775 332.034 580.161C332.034 579.555 331.947 579.025 331.772 578.57C331.598 578.116 331.342 577.761 331.005 577.508C330.668 577.254 330.252 577.127 329.755 577.127C329.244 577.127 328.818 577.26 328.477 577.525C328.136 577.79 327.878 578.152 327.704 578.61C327.534 579.068 327.449 579.585 327.449 580.161C327.449 580.744 327.536 581.269 327.71 581.735C327.884 582.201 328.142 582.57 328.483 582.843C328.827 583.112 329.252 583.246 329.755 583.246ZM341.657 580.905V575.797H343.362V584.525H341.691V583.013H341.601C341.4 583.479 341.078 583.868 340.635 584.178C340.195 584.485 339.648 584.638 338.993 584.638C338.432 584.638 337.936 584.515 337.504 584.269C337.076 584.019 336.739 583.65 336.493 583.161C336.25 582.672 336.129 582.068 336.129 581.349V575.797H337.828V581.144C337.828 581.739 337.993 582.212 338.322 582.564C338.652 582.917 339.08 583.093 339.606 583.093C339.924 583.093 340.241 583.013 340.555 582.854C340.873 582.695 341.136 582.455 341.345 582.133C341.557 581.811 341.661 581.402 341.657 580.905ZM347.343 579.343V584.525H345.645V575.797H347.275V577.218H347.383C347.584 576.756 347.898 576.385 348.326 576.104C348.758 575.824 349.302 575.684 349.957 575.684C350.552 575.684 351.073 575.809 351.52 576.059C351.967 576.305 352.313 576.672 352.559 577.161C352.806 577.65 352.929 578.254 352.929 578.974V584.525H351.23V579.178C351.23 578.546 351.065 578.051 350.735 577.695C350.406 577.335 349.953 577.155 349.378 577.155C348.984 577.155 348.633 577.241 348.326 577.411C348.023 577.582 347.783 577.832 347.605 578.161C347.431 578.487 347.343 578.881 347.343 579.343ZM358.866 587.979C358.173 587.979 357.576 587.888 357.076 587.707C356.58 587.525 356.175 587.284 355.86 586.985C355.546 586.686 355.311 586.358 355.156 586.002L356.616 585.4C356.718 585.566 356.855 585.743 357.025 585.928C357.199 586.118 357.434 586.279 357.73 586.411C358.029 586.544 358.413 586.61 358.883 586.61C359.527 586.61 360.059 586.453 360.48 586.138C360.9 585.828 361.11 585.332 361.11 584.65V582.934H361.003C360.9 583.119 360.753 583.326 360.559 583.553C360.37 583.78 360.109 583.977 359.775 584.144C359.442 584.311 359.008 584.394 358.474 584.394C357.785 584.394 357.163 584.233 356.61 583.911C356.061 583.585 355.626 583.106 355.304 582.474C354.985 581.837 354.826 581.055 354.826 580.127C354.826 579.199 354.984 578.404 355.298 577.741C355.616 577.078 356.052 576.57 356.605 576.218C357.158 575.862 357.785 575.684 358.485 575.684C359.027 575.684 359.465 575.775 359.798 575.957C360.131 576.135 360.391 576.343 360.576 576.582C360.766 576.82 360.912 577.03 361.014 577.212H361.139V575.797H362.804V584.718C362.804 585.468 362.629 586.083 362.281 586.564C361.932 587.046 361.461 587.402 360.866 587.633C360.275 587.864 359.609 587.979 358.866 587.979ZM358.849 582.985C359.338 582.985 359.751 582.871 360.088 582.644C360.429 582.413 360.686 582.083 360.86 581.655C361.038 581.224 361.128 580.707 361.128 580.104C361.128 579.517 361.04 579 360.866 578.553C360.692 578.106 360.436 577.758 360.099 577.508C359.762 577.254 359.345 577.127 358.849 577.127C358.338 577.127 357.912 577.26 357.571 577.525C357.23 577.786 356.972 578.142 356.798 578.593C356.628 579.044 356.542 579.547 356.542 580.104C356.542 580.676 356.629 581.178 356.804 581.61C356.978 582.042 357.235 582.379 357.576 582.621C357.921 582.864 358.345 582.985 358.849 582.985Z"
        fill="#656C7B" />
    <rect width="636" height="168" transform="matrix(1 0 0 -1 40 658)" fill="url(#paint0_linear_0_4280)" />
    <rect width="636" height="168" transform="matrix(1 0 0 -1 40 658)" fill="url(#paint1_linear_0_4280)" />
    <rect width="636" height="168" transform="matrix(1 0 0 -1 40 658)" fill="url(#paint2_linear_0_4280)" />
    <rect x="40" width="636" height="168" fill="url(#paint3_linear_0_4280)" />
    <rect x="40" width="636" height="168" fill="url(#paint4_linear_0_4280)" />
    <rect x="40" width="636" height="168" fill="url(#paint5_linear_0_4280)" />
    <defs>
        <linearGradient id="paint0_linear_0_4280" x1="318" y1="0" x2="318" y2="168" gradientUnits="userSpaceOnUse">
            <stop stop-color="white" />
            <stop offset="1" stop-color="white" stop-opacity="0" />
        </linearGradient>
        <linearGradient id="paint1_linear_0_4280" x1="318" y1="0" x2="318" y2="168" gradientUnits="userSpaceOnUse">
            <stop stop-color="white" />
            <stop offset="1" stop-color="white" stop-opacity="0" />
        </linearGradient>
        <linearGradient id="paint2_linear_0_4280" x1="318" y1="0" x2="318" y2="168" gradientUnits="userSpaceOnUse">
            <stop stop-color="white" />
            <stop offset="1" stop-color="white" stop-opacity="0" />
        </linearGradient>
        <linearGradient id="paint3_linear_0_4280" x1="358" y1="0" x2="358" y2="168" gradientUnits="userSpaceOnUse">
            <stop stop-color="white" />
            <stop offset="1" stop-color="white" stop-opacity="0" />
        </linearGradient>
        <linearGradient id="paint4_linear_0_4280" x1="358" y1="0" x2="358" y2="168" gradientUnits="userSpaceOnUse">
            <stop stop-color="white" />
            <stop offset="1" stop-color="white" stop-opacity="0" />
        </linearGradient>
        <linearGradient id="paint5_linear_0_4280" x1="358" y1="0" x2="358" y2="168" gradientUnits="userSpaceOnUse">
            <stop stop-color="white" />
            <stop offset="1" stop-color="white" stop-opacity="0" />
        </linearGradient>
    </defs>
</svg>